<svg xmlns="http://www.w3.org/2000/svg" xmlns:xlink="http://www.w3.org/1999/xlink" width="620.078" height="499.392" viewBox="0 0 620.078 499.392"><defs><style>.a{opacity:0.4;}.b,.c{fill:#c9c9c9;}.c{opacity:0.5;}.d{fill:#7dc3ea;}.e{fill:#396caa;}.f{fill:#173d7a;}.g{fill:url(#a);}.h{fill:#d4ecff;}.i{fill:#e30613;}.j{fill:#5793ce;}.k{fill:#fff;}.l{fill:#a50010;}.m{fill:#6b0010;}.n{fill:#f92137;}.o{fill:url(#b);}.p{fill:#a80010;}.q{fill:#ff2c9c;}</style><linearGradient id="a" y1="0.5" x2="1" y2="0.5" gradientUnits="objectBoundingBox"><stop offset="0" stop-color="#86b8e0"/><stop offset="0.116" stop-color="#98c4e7"/><stop offset="0.325" stop-color="#b2d5f1"/><stop offset="0.54" stop-color="#c5e2f9"/><stop offset="0.761" stop-color="#d0e9fd"/><stop offset="1" stop-color="#d4ecff"/></linearGradient><radialGradient id="b" cx="0.793" cy="0.736" r="1.168" gradientTransform="translate(-0.033) scale(1.067 1)" xlink:href="#a"/></defs><g transform="translate(-146.793 -33.447)"><g class="a" transform="translate(221.079 151.273)"><path class="b" d="M555.766,168.625,508.9,141.567l46.864-27.056,46.865,27.058Zm-43.547-27.058,43.547,25.142,43.545-25.141-43.547-25.142Z" transform="translate(-56.845 -114.507)"/><path class="b" d="M493.567,168.624,446.7,141.568l46.865-27.058,46.865,27.058ZM450.02,141.568l43.547,25.141,43.545-25.141-43.547-25.142Z" transform="translate(-85.057 -114.507)"/><path class="b" d="M524.666,186.58,477.8,159.522l46.864-27.056,46.865,27.058Zm-43.547-27.058,43.547,25.142,43.545-25.141-43.547-25.142Z" transform="translate(-70.951 -106.363)"/><path class="b" d="M555.767,204.536,508.9,177.478l46.864-27.056,46.865,27.058ZM512.22,177.478l43.547,25.142,43.545-25.141-43.547-25.142Z" transform="translate(-56.845 -98.219)"/><path class="b" d="M431.365,168.624,384.5,141.566l46.864-27.056,46.867,27.058Zm-43.547-27.058,43.547,25.142,43.545-25.141-43.547-25.142Z" transform="translate(-113.268 -114.507)"/><path class="b" d="M462.466,186.58,415.6,159.522l46.864-27.056,46.865,27.056Zm-43.547-27.058,43.547,25.142,43.545-25.142-43.547-25.141Z" transform="translate(-99.162 -106.363)"/><path class="b" d="M493.568,204.537,446.7,177.479l46.865-27.058,46.865,27.058Zm-43.547-27.058,43.547,25.142,43.545-25.142-43.547-25.142Z" transform="translate(-85.056 -98.22)"/><path class="b" d="M524.667,222.491,477.8,195.435l46.864-27.058,46.865,27.058ZM481.12,195.435l43.547,25.141,43.545-25.141-43.547-25.142Z" transform="translate(-70.95 -90.076)"/><path class="b" d="M555.768,240.449,508.9,213.389l46.864-27.056,46.865,27.058Zm-43.547-27.059,43.547,25.142,43.545-25.141-43.547-25.142Z" transform="translate(-56.845 -81.932)"/><path class="b" d="M369.165,168.623,322.3,141.565l46.864-27.056,46.865,27.058Zm-43.547-27.058,43.547,25.142,43.545-25.141-43.547-25.142Z" transform="translate(-141.478 -114.508)"/><path class="b" d="M400.266,186.579,353.4,159.521l46.864-27.056,46.865,27.058Zm-43.547-27.058,43.547,25.142,43.545-25.141-43.547-25.142Z" transform="translate(-127.373 -106.364)"/><path class="b" d="M431.366,204.537,384.5,177.477l46.864-27.056,46.867,27.058Zm-43.547-27.059,43.547,25.142,43.545-25.141-43.547-25.142Z" transform="translate(-113.267 -98.22)"/><path class="b" d="M462.467,222.491,415.6,195.433l46.864-27.056,46.865,27.058ZM418.92,195.433l43.547,25.142,43.546-25.141-43.547-25.142Z" transform="translate(-99.161 -90.076)"/><path class="b" d="M493.567,240.449,446.7,213.389l46.865-27.056,46.865,27.056ZM450.02,213.389l43.547,25.142,43.547-25.142-43.547-25.141Z" transform="translate(-85.056 -81.932)"/><path class="b" d="M524.668,258.405,477.8,231.346l46.864-27.058,46.865,27.058Zm-43.547-27.059,43.547,25.142,43.545-25.142L524.667,206.2Z" transform="translate(-70.95 -73.788)"/><path class="b" d="M555.769,276.36,508.9,249.3l46.864-27.059L602.633,249.3ZM512.222,249.3l43.547,25.139L599.315,249.3l-43.547-25.142Z" transform="translate(-56.844 -65.644)"/><path class="b" d="M306.965,168.623,260.1,141.565l46.864-27.056,46.865,27.056Zm-43.547-27.058,43.547,25.142,43.545-25.142-43.547-25.141Z" transform="translate(-169.689 -114.508)"/><path class="b" d="M338.067,186.58,291.2,159.522l46.865-27.058,46.865,27.058ZM294.52,159.522l43.547,25.142,43.546-25.142L338.065,134.38Z" transform="translate(-155.584 -106.364)"/><path class="b" d="M369.166,204.536,322.3,177.478l46.864-27.058,46.865,27.058Zm-43.547-27.058,43.547,25.141,43.546-25.141-43.547-25.142Z" transform="translate(-141.478 -98.22)"/><path class="b" d="M400.267,222.492,353.4,195.432l46.864-27.056,46.865,27.058ZM356.72,195.432l43.547,25.142,43.545-25.141-43.547-25.142Z" transform="translate(-127.372 -90.076)"/><path class="b" d="M431.367,240.448,384.5,213.388l46.864-27.056,46.865,27.058ZM387.82,213.388l43.547,25.142,43.545-25.141-43.547-25.141Z" transform="translate(-113.267 -81.932)"/><path class="b" d="M462.468,258.4,415.6,231.344l46.864-27.056,46.865,27.058Zm-43.547-27.059,43.547,25.142,43.545-25.141L462.467,206.2Z" transform="translate(-99.161 -73.788)"/><path class="b" d="M493.568,276.36,446.7,249.3l46.864-27.058L540.434,249.3ZM450.021,249.3l43.547,25.141L537.115,249.3l-43.548-25.142Z" transform="translate(-85.055 -65.644)"/><path class="b" d="M524.669,294.316,477.8,267.258,524.668,240.2l46.865,27.058Zm-43.547-27.058L524.669,292.4l43.546-25.141-43.547-25.141Z" transform="translate(-70.95 -57.5)"/><path class="b" d="M555.77,312.272,508.9,285.214l46.864-27.059,46.865,27.059Zm-43.547-27.058,43.547,25.142,43.545-25.142-43.547-25.142Z" transform="translate(-56.844 -49.357)"/><path class="b" d="M244.765,168.622,197.9,141.564l46.864-27.056,46.865,27.058Zm-43.547-27.058,43.547,25.142,43.545-25.141-43.547-25.142Z" transform="translate(-197.9 -114.508)"/><path class="b" d="M275.865,186.578,229,159.52l46.864-27.056,46.867,27.058ZM232.318,159.52l43.547,25.142,43.545-25.141L275.864,134.38Z" transform="translate(-183.795 -106.364)"/><path class="b" d="M306.966,204.536,260.1,177.476l46.864-27.056,46.865,27.058Zm-43.547-27.059,43.547,25.142,43.545-25.141-43.547-25.142Z" transform="translate(-169.689 -98.22)"/><path class="b" d="M338.068,222.492,291.2,195.432l46.865-27.056,46.865,27.056Zm-43.547-27.059,43.547,25.142,43.545-25.142-43.547-25.141Z" transform="translate(-155.583 -90.076)"/><path class="b" d="M369.167,240.448,322.3,213.389l46.864-27.058,46.865,27.058ZM325.62,213.389l43.547,25.142,43.545-25.142-43.547-25.141Z" transform="translate(-141.477 -81.933)"/><path class="b" d="M400.268,258.4,353.4,231.345l46.864-27.058,46.865,27.058Zm-43.547-27.058,43.547,25.141,43.545-25.141L400.267,206.2Z" transform="translate(-127.372 -73.789)"/><path class="b" d="M431.368,276.359,384.5,249.3l46.864-27.058L478.232,249.3ZM387.822,249.3l43.547,25.141L474.914,249.3,431.367,224.16Z" transform="translate(-113.266 -65.645)"/><path class="b" d="M462.469,294.315,415.6,267.257,462.468,240.2l46.865,27.059Zm-43.547-27.058L462.469,292.4l43.545-25.139-43.547-25.142Z" transform="translate(-99.16 -57.501)"/><path class="b" d="M493.571,312.271,446.7,285.213l46.864-27.058,46.867,27.059Zm-43.548-27.058,43.548,25.142,43.546-25.141-43.548-25.142Z" transform="translate(-85.055 -49.357)"/><path class="b" d="M524.67,330.227,477.8,303.169l46.864-27.058,46.865,27.059Zm-43.547-27.058,43.547,25.142,43.545-25.141-43.547-25.142Z" transform="translate(-70.949 -41.213)"/><path class="b" d="M555.77,348.182l-46.864-27.058,46.864-27.056,46.865,27.056Zm-43.545-27.058,43.545,25.142,43.547-25.142L555.77,295.984Z" transform="translate(-56.843 -33.069)"/><path class="b" d="M244.766,204.535,197.9,177.477l46.864-27.058,46.865,27.058Zm-43.547-27.058,43.547,25.141,43.545-25.141-43.547-25.142Z" transform="translate(-197.9 -98.221)"/><path class="b" d="M275.866,222.491,229,195.431l46.864-27.056,46.867,27.058Zm-43.547-27.059,43.547,25.142,43.545-25.141-43.547-25.142Z" transform="translate(-183.794 -90.077)"/><path class="b" d="M306.967,240.447,260.1,213.387l46.864-27.056,46.865,27.058ZM263.42,213.387l43.547,25.142,43.545-25.141-43.547-25.141Z" transform="translate(-169.688 -81.933)"/><path class="b" d="M338.067,258.4,291.2,231.343l46.865-27.056,46.865,27.058ZM294.52,231.343l43.547,25.142,43.547-25.141L338.067,206.2Z" transform="translate(-155.583 -73.789)"/><path class="b" d="M369.168,276.359,322.3,249.3l46.864-27.058L416.032,249.3ZM325.621,249.3l43.547,25.141L412.714,249.3,369.167,224.16Z" transform="translate(-141.477 -65.645)"/><path class="b" d="M400.269,294.315,353.4,267.257,400.268,240.2l46.865,27.059Zm-43.547-27.058L400.269,292.4l43.545-25.141-43.547-25.142Z" transform="translate(-127.371 -57.501)"/><path class="b" d="M431.369,312.27,384.5,285.213l46.864-27.059,46.865,27.059Zm-43.547-27.056,43.547,25.141,43.545-25.141-43.547-25.142Z" transform="translate(-113.266 -49.357)"/><path class="b" d="M462.47,330.226,415.6,303.168l46.864-27.058,46.865,27.059Zm-43.547-27.058L462.47,328.31l43.546-25.141-43.547-25.142Z" transform="translate(-99.16 -41.213)"/><path class="b" d="M493.572,348.181l-46.867-27.058,46.865-27.056,46.865,27.058Zm-43.548-27.058,43.548,25.142,43.546-25.141L493.57,295.983Z" transform="translate(-85.055 -33.069)"/><path class="b" d="M524.67,366.137l-46.864-27.058,46.864-27.056,46.864,27.058Zm-43.545-27.058,43.545,25.142,43.545-25.141L524.67,313.939Z" transform="translate(-70.949 -24.925)"/><path class="b" d="M555.771,384.093l-46.865-27.058,46.864-27.056,46.865,27.058Zm-43.547-27.058,43.547,25.142,43.545-25.141L555.77,331.895Z" transform="translate(-56.843 -16.781)"/><path class="b" d="M244.767,240.447,197.9,213.388l46.864-27.058,46.865,27.058ZM201.22,213.388l43.547,25.142,43.545-25.142-43.547-25.141Z" transform="translate(-197.899 -81.933)"/><path class="b" d="M275.867,258.4,229,231.344l46.864-27.058,46.865,27.058ZM232.32,231.344l43.547,25.141,43.546-25.141L275.866,206.2Z" transform="translate(-183.794 -73.789)"/><path class="b" d="M306.968,276.358,260.1,249.3l46.864-27.056L353.832,249.3ZM263.421,249.3l43.547,25.142L350.514,249.3l-43.547-25.142Z" transform="translate(-169.688 -65.645)"/><path class="b" d="M338.068,294.314,291.2,267.256,338.067,240.2l46.867,27.059Zm-43.546-27.058L338.068,292.4l43.547-25.141-43.548-25.142Z" transform="translate(-155.582 -57.501)"/><path class="b" d="M369.169,312.27,322.3,285.212l46.864-27.058,46.865,27.059Zm-43.547-27.058,43.547,25.142,43.545-25.141-43.547-25.142Z" transform="translate(-141.477 -49.357)"/><path class="b" d="M400.27,330.226l-46.865-27.058,46.864-27.058,46.865,27.058Zm-43.547-27.058L400.27,328.31l43.546-25.142-43.547-25.141Z" transform="translate(-127.371 -41.213)"/><path class="b" d="M431.37,348.182l-46.865-27.058,46.864-27.058,46.865,27.058Zm-43.547-27.058,43.547,25.142,43.545-25.142-43.547-25.142Z" transform="translate(-113.265 -33.069)"/><path class="b" d="M462.47,366.136,415.606,339.08l46.864-27.058,46.865,27.058ZM418.924,339.08,462.47,364.22l43.547-25.141L462.47,313.938Z" transform="translate(-99.159 -24.926)"/><path class="b" d="M493.572,384.092l-46.867-27.058,46.867-27.056,46.864,27.058Zm-43.548-27.058,43.548,25.142,43.546-25.141-43.546-25.142Z" transform="translate(-85.055 -16.782)"/><path class="b" d="M244.768,276.358,197.9,249.3l46.864-27.056L291.632,249.3ZM201.221,249.3l43.547,25.142L288.314,249.3l-43.547-25.139Z" transform="translate(-197.899 -65.645)"/><path class="b" d="M275.868,294.314,229,267.256,275.867,240.2l46.867,27.059Zm-43.547-27.058L275.868,292.4l43.545-25.142-43.547-25.142Z" transform="translate(-183.793 -57.502)"/><path class="b" d="M306.969,312.269,260.1,285.212l46.864-27.059,46.865,27.059Zm-43.547-27.056,43.547,25.141,43.545-25.141L306.968,260.07Z" transform="translate(-169.687 -49.358)"/><path class="b" d="M338.071,330.224,291.2,303.166l46.864-27.056,46.867,27.058Zm-43.547-27.058,43.547,25.142,43.546-25.141-43.548-25.142Z" transform="translate(-155.582 -41.213)"/><path class="b" d="M369.17,348.18l-46.865-27.058,46.864-27.056,46.865,27.058Zm-43.547-27.058,43.547,25.142,43.546-25.141-43.547-25.142Z" transform="translate(-141.476 -33.069)"/><path class="b" d="M400.271,366.136l-46.865-27.058,46.864-27.056,46.865,27.058Zm-43.547-27.058,43.547,25.142,43.545-25.141L400.27,313.938Z" transform="translate(-127.37 -24.926)"/><path class="b" d="M431.37,384.092l-46.864-27.058,46.864-27.056,46.864,27.056Zm-43.545-27.058,43.545,25.142,43.545-25.142L431.37,331.894Z" transform="translate(-113.265 -16.782)"/><path class="b" d="M244.77,312.269,197.9,285.211l46.865-27.058,46.865,27.059Zm-43.547-27.058,43.547,25.142,43.545-25.141L244.768,260.07Z" transform="translate(-197.899 -49.358)"/><path class="b" d="M275.869,330.224,229,303.166l46.864-27.056,46.867,27.056Zm-43.547-27.058,43.547,25.142,43.545-25.142-43.547-25.141Z" transform="translate(-183.793 -41.213)"/><path class="b" d="M306.97,348.181l-46.865-27.058,46.864-27.058,46.865,27.058Zm-43.547-27.058,43.547,25.142,43.545-25.142-43.547-25.142Z" transform="translate(-169.687 -33.07)"/><path class="b" d="M338.072,366.135,291.2,339.079l46.865-27.058,46.865,27.058Zm-43.548-27.056,43.548,25.141,43.545-25.141L338.07,313.937Z" transform="translate(-155.581 -24.926)"/><path class="b" d="M369.17,384.091l-46.864-27.058,46.864-27.056,46.865,27.058Zm-43.545-27.058,43.545,25.142,43.547-25.141L369.17,331.893Z" transform="translate(-141.476 -16.782)"/><path class="b" d="M244.771,348.179,197.9,321.121l46.865-27.056,46.865,27.058Zm-43.547-27.058,43.547,25.142,43.545-25.141-43.547-25.142Z" transform="translate(-197.898 -33.07)"/><path class="b" d="M275.87,366.135,229,339.077l46.864-27.056,46.865,27.058Zm-43.547-27.058,43.547,25.142,43.545-25.141-43.547-25.142Z" transform="translate(-183.792 -24.926)"/><path class="b" d="M306.971,384.091l-46.865-27.058,46.864-27.056,46.865,27.056Zm-43.547-27.058,43.547,25.142,43.545-25.142L306.97,331.893Z" transform="translate(-169.686 -16.782)"/><path class="b" d="M244.772,384.09l-46.867-27.058,46.865-27.056,46.865,27.058Zm-43.547-27.058,43.547,25.142,43.545-25.141L244.77,331.892Z" transform="translate(-197.898 -16.783)"/></g><g transform="translate(146.793 265.196)"><path class="b" d="M149,245.107a2.207,2.207,0,0,1-1.954-3.228,24.806,24.806,0,0,1,9.008-9.909,11.736,11.736,0,0,1,6.349-1.754c.089,0,.177.006.269.006,2.794,0,6.21-2.118,9.2-5.723a21.84,21.84,0,0,1,5.728-4.968,11.614,11.614,0,0,1,6.348-1.757c2.913.137,6.384-1.994,9.471-5.717a21.556,21.556,0,0,1,5.73-4.968,11.735,11.735,0,0,1,6.349-1.756c2.8.192,6.38-1.994,9.471-5.715a21.767,21.767,0,0,1,5.728-4.968c3.236-1.868,6.458-2.268,9.083-1.131a2.206,2.206,0,0,1-1.76,4.047c-1.31-.574-3.125-.249-5.118.9a17.418,17.418,0,0,0-4.541,3.965c-4.032,4.858-8.854,7.487-13.085,7.307a7.141,7.141,0,0,0-3.923,1.169,17.454,17.454,0,0,0-4.542,3.967c-4.031,4.856-8.858,7.479-13.082,7.3a7.222,7.222,0,0,0-3.923,1.172,17.386,17.386,0,0,0-4.541,3.964c-4.031,4.858-8.839,7.5-13.085,7.307a7.329,7.329,0,0,0-3.923,1.169,20.321,20.321,0,0,0-7.306,8.133A2.2,2.2,0,0,1,149,245.107Z" transform="translate(-146.793 -192.884)"/></g><g transform="translate(535.577 482.453)"><path class="b" d="M422.752,361.767a9.376,9.376,0,0,1-4.244,7.349c-2.343,1.353-4.243.256-4.243-2.449a9.379,9.379,0,0,1,4.243-7.349C420.852,357.965,422.752,359.062,422.752,361.767Z" transform="translate(-414.265 -334.917)"/><path class="b" d="M432.213,356.305a9.376,9.376,0,0,1-4.243,7.348c-2.343,1.353-4.243.257-4.243-2.449a9.381,9.381,0,0,1,4.243-7.349C430.313,352.5,432.213,353.6,432.213,356.305Z" transform="translate(-409.974 -337.395)"/><path class="b" d="M441.675,350.842a9.381,9.381,0,0,1-4.243,7.349c-2.343,1.352-4.243.256-4.243-2.451a9.376,9.376,0,0,1,4.243-7.348C439.775,347.04,441.675,348.136,441.675,350.842Z" transform="translate(-405.682 -339.873)"/><path class="b" d="M451.137,345.379a9.379,9.379,0,0,1-4.243,7.349c-2.343,1.353-4.243.256-4.243-2.449a9.379,9.379,0,0,1,4.243-7.349C449.237,341.577,451.137,342.674,451.137,345.379Z" transform="translate(-401.391 -342.35)"/></g><g transform="translate(731.523 257.595)"><path class="b" d="M557.556,204.63a9.379,9.379,0,0,1-4.243,7.349c-2.343,1.353-4.243.257-4.243-2.449a9.381,9.381,0,0,1,4.243-7.349C555.656,200.828,557.556,201.925,557.556,204.63Z" transform="translate(-549.07 -181.329)"/><path class="b" d="M565.608,199.981a9.378,9.378,0,0,1-4.243,7.349c-2.343,1.353-4.243.256-4.243-2.449a9.379,9.379,0,0,1,4.243-7.349C563.708,196.179,565.608,197.276,565.608,199.981Z" transform="translate(-545.418 -183.437)"/><path class="b" d="M557.556,195.332a9.376,9.376,0,0,1-4.243,7.349c-2.343,1.353-4.243.257-4.243-2.449a9.381,9.381,0,0,1,4.243-7.349C555.656,191.53,557.556,192.627,557.556,195.332Z" transform="translate(-549.07 -185.546)"/><path class="b" d="M565.608,190.683a9.379,9.379,0,0,1-4.243,7.349c-2.343,1.353-4.243.256-4.243-2.449a9.379,9.379,0,0,1,4.243-7.349C563.708,186.881,565.608,187.978,565.608,190.683Z" transform="translate(-545.418 -187.654)"/></g><path class="c" d="M284.622,337.133a16.244,16.244,0,0,0-4.146,3.561c-.195-8.172-6.058-11.438-13.28-7.268a24.162,24.162,0,0,0-6.384,5.569c-3.214-5.618-9.875-6.923-17.594-2.467-10.854,6.266-19.652,21.507-19.652,34.039a23.355,23.355,0,0,0,.2,2.929,7.409,7.409,0,0,0-5.5,1.112c-5.194,3-9.4,10.29-9.4,16.287s4.209,8.426,9.4,5.428l66.362-38.313c4.993-2.884,9.041-9.894,9.041-15.659S289.615,334.249,284.622,337.133Z" transform="translate(28.149 135.232)"/><path class="c" d="M551.995,38.967a16.221,16.221,0,0,0-4.145,3.563c-.195-8.173-6.058-11.438-13.28-7.269a24.167,24.167,0,0,0-6.384,5.57c-3.214-5.619-9.874-6.925-17.592-2.468C499.738,44.629,490.94,59.869,490.94,72.4a23.678,23.678,0,0,0,.2,2.93,7.407,7.407,0,0,0-5.5,1.111c-5.194,3-9.4,10.29-9.4,16.287s4.209,8.428,9.4,5.429l66.362-38.314c4.993-2.882,9.041-9.893,9.041-15.658S556.988,36.085,551.995,38.967Z" transform="translate(149.416)"/><path class="d" d="M668.36,237.874,526.628,155.8c-7.7-4.459-21.158-3.92-30.061,1.205L199.111,328.191c-8.9,5.124-9.881,12.893-2.182,17.352L338.66,427.618c7.7,4.458,21.158,3.919,30.062-1.2L666.177,255.227C675.082,250.1,676.058,242.334,668.36,237.874Z" transform="translate(20.384 54.123)"/><g transform="translate(200.409 127.055)"><path class="b" d="M352.572,423.614a29.161,29.161,0,0,1-14.384-3.377L196.456,338.163c-4.156-2.407-6.442-5.856-6.436-9.71.007-4.454,3.15-8.816,8.624-11.967L496.1,145.3c9.739-5.606,24.043-6.134,32.557-1.2l141.733,82.076c4.157,2.406,6.442,5.853,6.438,9.708-.006,4.454-3.15,8.816-8.625,11.967L370.747,419.035A37.277,37.277,0,0,1,352.572,423.614ZM514.346,145.755a32.614,32.614,0,0,0-15.756,3.872L201.134,320.812c-3.83,2.205-6.118,5.064-6.121,7.649,0,2.557,2.144,4.337,3.946,5.381l141.73,82.075c6.88,3.986,19.5,3.43,27.568-1.208L665.712,243.522c3.83-2.2,6.118-5.063,6.121-7.647,0-2.557-2.143-4.337-3.943-5.38L526.156,148.419A24.125,24.125,0,0,0,514.346,145.755Z" transform="translate(-180.803 -78.401)"/><path class="e" d="M338.18,400.75l-147.5-85.416c-4.846-2.807-7.1-6.59-6.944-10.527l-.033.012.06-21.4,8.2,9.609c.532-.352,1.067-.7,1.65-1.036L495.357,118.336c11.979-6.894,30.087-7.62,40.445-1.619l145.429,84.216c2.943-3.223,9.115-10.028,9.115-10.028l-.07,20.935,0,0c.219,4.72-3.141,9.748-9.9,13.64L378.625,399.13C366.647,406.024,348.538,406.749,338.18,400.75Z" transform="translate(-183.668 -91.132)"/><path class="f" d="M235.743,276.581l8.5,4.9c1.128.651,2.042-.041,2.042-1.545h0a4.891,4.891,0,0,0-2.042-3.9l-8.5-4.9c-1.128-.651-2.042.039-2.042,1.544h0A4.9,4.9,0,0,0,235.743,276.581Z" transform="translate(-160.992 -19.364)"/><path class="g" d="M441.331,118.336c11.979-6.894,30.087-7.62,40.445-1.621L627.2,200.932c2.943-3.223,9.115-10.028,9.115-10.028l-.07,20.935,0,0c.219,4.72-3.141,9.747-9.9,13.64L324.6,399.13a46.653,46.653,0,0,1-21.777,5.657l.286-206.9Z" transform="translate(-129.642 -91.132)"/><path class="h" d="M683.348,187.328l-147.5-85.416c-10.358-6-28.466-5.273-40.447,1.621L193.66,277.185c-11.979,6.894-13.294,17.345-2.936,23.345l147.5,85.416c10.358,6,28.465,5.273,40.445-1.621L680.412,210.673C692.391,203.779,693.706,193.326,683.348,187.328Z" transform="translate(-183.651 -97.847)"/><path class="b" d="M338.14,356.647l-147.5-85.416c-5.342-3.093-7.554-7.372-6.826-11.736.262,3.544,2.535,6.9,6.938,9.452l147.5,85.416c10.358,6,28.465,5.273,40.445-1.621L680.44,179.091c5.8-3.339,9.078-7.511,9.762-11.61.353,4.794-2.987,9.931-9.874,13.895L378.587,355.027C366.607,361.922,348.5,362.648,338.14,356.647Z" transform="translate(-183.679 -66.264)"/><path class="f" d="M668.36,188.276,526.628,106.2c-7.7-4.459-21.158-3.92-30.061,1.2L199.111,278.59c-8.9,5.124-9.881,12.893-2.182,17.353L338.66,378.018c7.7,4.46,21.158,3.92,30.062-1.2L666.177,205.628C675.082,200.5,676.058,192.735,668.36,188.276Z" transform="translate(-180.024 -95.428)"/><g transform="translate(74.11 178.533)"><path class="h" d="M348.585,282.1,248.572,224.358l6.384-3.686,100.013,57.743Z" transform="translate(-228.357 -220.673)"/><path class="h" d="M285.305,261.625l-50.641-29.237,6.384-3.686,50.641,29.238Z" transform="translate(-234.664 -217.031)"/><path class="i" d="M291.536,265.222l-16.424-9.482,6.384-3.686,16.424,9.483Z" transform="translate(-216.32 -206.44)"/><path class="b" d="M308.6,275.072l-16.424-9.483,6.384-3.686,16.424,9.483Z" transform="translate(-208.582 -201.972)"/><path class="b" d="M282.718,252.1l-41.1-23.729L248,224.687l41.1,23.729Z" transform="translate(-231.511 -218.852)"/><path class="h" d="M317.233,272.029l-41.1-23.729,6.384-3.686,41.1,23.729Z" transform="translate(-215.856 -209.814)"/><g transform="translate(61.959 6.302)"><path class="i" d="M286.28,230.2a8.228,8.228,0,0,1-7.447,0c-2.057-1.188-2.057-3.112,0-4.3a8.231,8.231,0,0,1,7.448,0C288.337,227.086,288.337,229.011,286.28,230.2Z" transform="translate(-277.291 -225.008)"/><path class="b" d="M293.936,234.618a8.228,8.228,0,0,1-7.447,0c-2.057-1.187-2.057-3.112,0-4.3a8.231,8.231,0,0,1,7.448,0C295.993,231.506,295.993,233.431,293.936,234.618Z" transform="translate(-273.818 -223.004)"/><path class="h" d="M301.592,239.038a8.228,8.228,0,0,1-7.447,0c-2.057-1.188-2.057-3.112,0-4.3a8.231,8.231,0,0,1,7.448,0C303.649,235.926,303.649,237.851,301.592,239.038Z" transform="translate(-270.346 -220.999)"/><path class="i" d="M309.248,243.459a8.228,8.228,0,0,1-7.447,0c-2.057-1.186-2.057-3.112,0-4.3a8.231,8.231,0,0,1,7.448,0C311.3,240.346,311.3,242.272,309.248,243.459Z" transform="translate(-266.873 -218.994)"/><path class="b" d="M316.9,247.88a8.227,8.227,0,0,1-7.446,0c-2.057-1.188-2.057-3.113,0-4.3a8.237,8.237,0,0,1,7.446,0C318.961,244.766,318.961,246.692,316.9,247.88Z" transform="translate(-263.401 -216.989)"/></g></g><g transform="translate(321.2 36.146)"><path class="i" d="M473.241,166.371,456.4,156.648l6.545-3.779,16.839,9.722Z" transform="translate(-381.186 -109.037)"/><path class="b" d="M489.373,175.684l-16.839-9.722,6.545-3.779,16.839,9.722Z" transform="translate(-373.87 -104.813)"/><path class="b" d="M421.5,136.215l-16.839-9.722,6.545-3.779,16.839,9.722Z" transform="translate(-404.656 -122.714)"/><path class="b" d="M472.721,174.3l-23.448-13.538,6.545-3.779,23.448,13.538Z" transform="translate(-384.42 -107.17)"/><path class="h" d="M480.2,178.62l-10.289-5.94,6.545-3.779,10.289,5.94Z" transform="translate(-375.059 -101.766)"/></g><g transform="translate(158.413 77.772)"><path class="j" d="M379.994,163.383l-12.418-7.169,3.821-2.206,12.418,7.17Z" transform="translate(-258.686 -150.147)"/><g transform="translate(115.577)"><path class="j" d="M418.026,180.029l-45.85-26.472L376,151.351l45.85,26.472Z" transform="translate(-372.176 -151.351)"/><path class="j" d="M424.856,183.972l-17.194-9.927,3.821-2.206,17.194,9.927Z" transform="translate(-356.081 -142.059)"/><path class="j" d="M404.24,177.381,379.4,163.043l3.821-2.206,24.835,14.339Z" transform="translate(-368.898 -147.049)"/></g><path class="b" d="M437.112,200.616l-16.453-9.5,16.453-9.5,16.451,9.5Zm-10.294-9.5,10.294,5.944,10.294-5.944-10.294-5.942Z" transform="translate(-234.61 -137.623)"/><path class="j" d="M364.88,172.109l-12.418-7.169,3.821-2.206L368.7,169.9Z" transform="translate(-265.54 -146.189)"/><g transform="translate(94.563 12.132)"><path class="j" d="M376.823,172.934l-19.1-11.03,3.821-2.206,19.1,11.03Z" transform="translate(-357.719 -159.698)"/><path class="j" d="M400.6,186.659l-25.791-14.89,3.821-2.206,25.791,14.89Z" transform="translate(-349.97 -155.224)"/><path class="j" d="M406.32,196.034l-42.029-24.266,3.821-2.206,42.029,24.266Z" transform="translate(-354.739 -155.224)"/></g><path class="b" d="M422,209.341l-16.451-9.5,16.451-9.5,16.453,9.5Zm-10.294-9.5L422,205.787l10.294-5.944L422,193.9Z" transform="translate(-241.465 -133.665)"/><path class="j" d="M367.617,190.382l-29.612-17.1,3.821-2.206,29.611,17.1Z" transform="translate(-272.098 -142.403)"/><g transform="translate(72.594 24.816)"><path class="j" d="M356.933,178.9,342.6,170.63l3.821-2.206,14.328,8.272Z" transform="translate(-342.605 -168.424)"/><path class="j" d="M379.33,191.834,356.405,178.6l3.821-2.206,22.925,13.236Z" transform="translate(-336.346 -164.811)"/><path class="j" d="M390.746,198.425,375.463,189.6l3.821-2.206,15.283,8.824Z" transform="translate(-327.702 -159.82)"/><path class="j" d="M386.5,201.283l-24.835-14.339,3.821-2.206,24.836,14.339Z" transform="translate(-333.961 -161.025)"/></g><path class="b" d="M406.882,218.068l-16.451-9.5,16.451-9.5,16.453,9.5Zm-10.294-9.5,10.294,5.944,10.294-5.944-10.294-5.942Z" transform="translate(-248.32 -129.708)"/><path class="j" d="M335.309,189.182l-12.418-7.169,3.821-2.206,12.418,7.169Z" transform="translate(-278.953 -138.446)"/><g transform="translate(50.625 37.5)"><path class="j" d="M360.923,198.659l-33.432-19.3,3.821-2.206,33.432,19.3Z" transform="translate(-327.491 -177.151)"/><path class="j" d="M374.792,206.666l-21.015-12.133,3.821-2.206,21.015,12.133Z" transform="translate(-315.569 -170.267)"/></g><path class="b" d="M391.768,226.794l-16.451-9.5,16.451-9.5,16.451,9.5Zm-10.294-9.5,10.294,5.945,10.294-5.944-10.294-5.945Z" transform="translate(-255.175 -125.75)"/><path class="j" d="M320.195,197.908l-12.418-7.169,3.821-2.206,12.418,7.169Z" transform="translate(-285.808 -134.488)"/><g transform="translate(28.655 50.184)"><path class="j" d="M340.078,204.076l-27.7-15.993,3.821-2.206,27.7,15.993Z" transform="translate(-312.377 -185.877)"/><path class="j" d="M358,214.426l-21.97-12.684,3.821-2.206,21.97,12.684Z" transform="translate(-301.647 -179.682)"/><path class="j" d="M330.411,203.806l-11.463-6.618,3.821-2.206,11.463,6.618Z" transform="translate(-309.396 -181.747)"/></g><path class="b" d="M376.655,235.52l-16.453-9.5,16.453-9.5,16.451,9.5Zm-10.294-9.5,10.294,5.944,10.294-5.944-10.294-5.944Z" transform="translate(-262.03 -121.792)"/><path class="j" d="M305.08,206.634l-12.418-7.169,3.821-2.206,12.418,7.169Z" transform="translate(-292.663 -130.53)"/><g transform="translate(6.686 62.868)"><path class="j" d="M326.874,213.9l-29.612-17.1,3.821-2.206,29.611,17.1Z" transform="translate(-297.262 -194.603)"/><path class="j" d="M330.174,215.81l-8.6-4.963,3.821-2.206,8.6,4.963Z" transform="translate(-286.235 -188.236)"/><path class="j" d="M339.374,221.122l-8.6-4.963,3.821-2.206,8.6,4.963Z" transform="translate(-282.062 -185.827)"/><path class="j" d="M315,212.36l-10.507-6.066,3.821-2.206,10.507,6.066Z" transform="translate(-293.984 -190.301)"/></g><path class="b" d="M362.2,243.867l-16.453-9.5,16.453-9.5,16.451,9.5Zm-10.294-9.5,10.294,5.944,10.294-5.944L362.2,228.426Z" transform="translate(-268.587 -118.007)"/><path class="i" d="M365.877,236.361h11.64c1.685,0,3.05-.789,3.05-1.76s-1.365-1.76-3.05-1.76h-11.64V226.12c0-.972-1.365-1.76-3.05-1.76s-3.048.788-3.048,1.76v6.721h-11.64c-1.685,0-3.05.788-3.048,1.759s1.365,1.76,3.048,1.76h11.64v6.72c0,.972,1.366,1.76,3.05,1.76s3.048-.788,3.048-1.76Z" transform="translate(-268.884 -118.238)"/><path class="i" d="M396.249,218.909H407.89c1.683,0,3.048-.788,3.048-1.76s-1.365-1.76-3.048-1.76H396.249v-6.721c0-.971-1.365-1.76-3.048-1.76s-3.049.789-3.048,1.76v6.721h-11.64c-1.683,0-3.048.788-3.048,1.76s1.365,1.76,3.048,1.76h11.642v6.721c0,.971,1.365,1.759,3.048,1.759s3.048-.788,3.048-1.759Z" transform="translate(-255.108 -126.154)"/><path class="i" d="M411.519,210.019H423.16c1.683,0,3.048-.788,3.05-1.76s-1.366-1.759-3.05-1.759H411.519v-6.721c0-.972-1.365-1.76-3.048-1.76s-3.048.788-3.048,1.76V206.5H393.781c-1.683,0-3.048.788-3.048,1.76s1.365,1.76,3.048,1.76h11.642v6.721c0,.972,1.365,1.76,3.048,1.76s3.05-.788,3.05-1.76Z" transform="translate(-248.183 -130.186)"/></g></g><path class="k" d="M435.2,172.576c-18.648,0-37.291-4.1-51.488-12.294-14.322-8.269-22.21-19.444-22.21-31.468s7.887-23.2,22.209-31.466c28.391-16.392,74.586-16.392,102.972,0,14.323,8.268,22.212,19.446,22.212,31.468s-7.887,23.2-22.21,31.468h0C472.492,168.477,453.845,172.576,435.2,172.576ZM435.2,91c-17.552,0-35.1,3.856-48.466,11.572-12.376,7.146-19.191,16.464-19.191,26.239s6.816,19.1,19.193,26.241c26.725,15.429,70.209,15.428,96.936,0h0c12.376-7.146,19.19-16.464,19.191-26.241s-6.816-19.094-19.193-26.241C470.3,94.86,452.75,91,435.2,91Zm49.98,66.667h0Z" transform="translate(97.381 23.406)"/><g transform="translate(456.906 52.303)"><g transform="translate(18.431)"><path class="l" d="M482.593,103.254l-22.685.355a24.116,24.116,0,0,0-7.165-6.025c-12.476-7.2-32.091-7.759-45.682-1.68L393.579,83.226l-20.757.324c1.026-.672,2.079-1.333,3.191-1.975,28.846-16.653,75.614-16.655,104.459,0a54.82,54.82,0,0,1,12.979,10.111Z" transform="translate(-372.822 -36.14)"/><path class="l" d="M372.822,56.473V89.416l20.757-.324V56.149Z" transform="translate(-372.822 -42.007)"/><path class="m" d="M400.583,68.827v32.944L387.1,89.092V56.149Z" transform="translate(-366.345 -42.007)"/><path class="l" d="M449.224,75.781v32.945L419.381,84.407l-23,16.614V68.078L417.558,57.8s29.161,8.928,30.677,9.306S449.224,75.781,449.224,75.781Z" transform="translate(-362.139 -41.257)"/><path class="m" d="M455.419,69.928v32.944l-22.686.354V70.282Z" transform="translate(-345.649 -35.757)"/><path class="n" d="M459.2,61.969V94.912l-10.859,11.569V73.538Z" transform="translate(-338.57 -39.367)"/><path class="i" d="M482.593,80.59l-22.685.353a24.159,24.159,0,0,0-7.165-6.025c-12.476-7.2-32.091-7.758-45.682-1.679L393.579,60.562l-20.757.324c1.026-.672,2.079-1.334,3.191-1.975,28.846-16.655,75.614-16.655,104.459,0a54.861,54.861,0,0,1,12.979,10.112Z" transform="translate(-372.822 -46.419)"/></g><g transform="translate(0 19.708)"><path class="j" d="M397.8,67.659V97.942l-19.637-4.7s1.153-17.722,1.57-18.2S397.8,67.659,397.8,67.659Z" transform="translate(-351.967 -56.494)"/><path class="f" d="M406.881,88.493v32.943l-2.121,2.26-13.845-7.981s2.147-25.148,2.4-25.652S406.881,88.493,406.881,88.493Z" transform="translate(-346.184 -47.045)"/><path class="e" d="M394.106,82.642l11.873,11.165c-9.89,7.824-8.721,18.855,3.513,25.918a42.177,42.177,0,0,0,11.346,4.365l-12.271,13.073,10.873,10.226c-13.8-1.595-26.975-5.476-37.677-11.655C356.965,121.418,353.507,99.46,371.345,83Z" transform="translate(-360.142 -49.699)"/><path class="e" d="M419.44,118.04v32.944l-26.921-10.4L360.142,109.7l.12-34.981,34.255,27.151Z" transform="translate(-360.142 -53.294)"/><path class="o" d="M394.106,59.978l11.873,11.165c-9.89,7.824-8.721,18.855,3.513,25.918a42.225,42.225,0,0,0,11.346,4.365L408.567,114.5l10.873,10.224c-13.8-1.593-26.975-5.474-37.677-11.653-24.8-14.316-28.256-36.275-10.418-52.738Z" transform="translate(-360.142 -59.978)"/></g><g transform="translate(59.386 29.015)"><path class="e" d="M401,134.089l10.814-11.524c10.041.61,20.454-1.3,28.149-5.744,7.948-4.589,11.221-10.852,9.832-16.823l25.755-.4,9.9-10.55c8.663,14.867,2.753,31.942-17.761,43.785-15.073,8.7-35.041,12.848-54.787,12.455Z" transform="translate(-400.998 -56.102)"/><path class="e" d="M409.189,118.289v32.944l76.4-42.34V75.933l-11.155,4.51Z" transform="translate(-397.283 -62.049)"/><path class="f" d="M401,97.369v32.944l11.906,11.2V108.567Z" transform="translate(-400.998 -52.326)"/><path class="j" d="M401,111.424,411.812,99.9c10.041.61,20.454-1.3,28.149-5.744,7.948-4.589,11.221-10.852,9.832-16.823l25.755-.4,9.9-10.55c8.663,14.867,2.753,31.94-17.761,43.785-15.073,8.7-35.041,12.848-54.787,12.455Z" transform="translate(-400.998 -66.381)"/></g></g><path class="d" d="M509.475,150.147,486.046,136.62l23.428-13.526L532.9,136.621Z" transform="translate(153.868 40.659)"/><g transform="translate(637.417 104.518)"><g transform="translate(0)"><path class="b" d="M510.254,143.1a2.482,2.482,0,0,1-1.247-.336l-23.428-13.525a2.495,2.495,0,0,1,0-4.324L509,111.384a2.5,2.5,0,0,1,2.5,0l23.43,13.527a2.5,2.5,0,0,1,0,4.324L511.5,142.76A2.488,2.488,0,0,1,510.254,143.1Zm-18.435-16.024,18.435,10.644,18.435-10.644-18.437-10.643Z" transform="translate(-484.328 -69.321)"/><path class="l" d="M525.593,118.7l-23.428,13.526V105.174l23.428-13.526Z" transform="translate(-476.238 -78.121)"/><path class="i" d="M509.475,109.394,486.046,95.868l23.428-13.526L532.9,95.868Z" transform="translate(-483.549 -82.342)"/><path class="m" d="M509.475,132.226,486.046,118.7V91.647l23.428,13.526Z" transform="translate(-483.549 -78.121)"/></g><path class="i" d="M498.4,113.051l-6.553-3.783V101.7l6.553,3.783Z" transform="translate(-480.916 -73.561)"/></g><path class="d" d="M496.232,372.79l-24.391-14.082,24.391-14.082,24.391,14.082Z" transform="translate(147.425 141.135)"/><g transform="translate(616.769 424.708)"><path class="b" d="M497.011,365.739a2.482,2.482,0,0,1-1.247-.336l-24.391-14.082a2.495,2.495,0,0,1,0-4.324l24.391-14.08a2.493,2.493,0,0,1,2.5,0L522.65,347a2.5,2.5,0,0,1,0,4.324L498.259,365.4A2.488,2.488,0,0,1,497.011,365.739Zm-19.4-16.581,19.4,11.2,19.4-11.2-19.4-11.2Z" transform="translate(-470.123 -289.036)"/><path class="f" d="M513.012,340.474l-24.391,14.082V326.393l24.391-14.082Z" transform="translate(-461.733 -298.23)"/><path class="h" d="M496.232,330.787l-24.391-14.082,24.39-14.082,24.391,14.082Z" transform="translate(-469.344 -302.623)"/><path class="j" d="M496.232,354.556l-24.391-14.082V312.311l24.391,14.082Z" transform="translate(-469.344 -298.23)"/><path class="b" d="M484.707,334.594l-6.822-3.939v-7.877l6.822,3.939Z" transform="translate(-466.603 -293.482)"/></g><ellipse class="d" cx="39.763" cy="22.957" rx="39.763" ry="22.957" transform="translate(166.305 450.085)"/><g transform="translate(156.639 384.474)"><path class="b" d="M200.76,358.881c-10.636,0-21.268-2.336-29.366-7.01-8.314-4.8-12.894-11.333-12.894-18.395s4.58-13.6,12.894-18.395c16.193-9.346,42.54-9.348,58.729,0,8.314,4.8,12.9,11.333,12.9,18.395s-4.58,13.594-12.894,18.395h0C222.028,356.545,211.394,358.881,200.76,358.881Zm0-45.891c-9.732,0-19.46,2.138-26.869,6.415-6.7,3.871-10.4,8.87-10.4,14.072s3.693,10.2,10.4,14.072c14.816,8.553,38.922,8.551,53.739,0,6.7-3.871,10.4-8.87,10.4-14.072s-3.692-10.2-10.4-14.072C220.218,315.129,210.487,312.99,200.758,312.99Z" transform="translate(-151.33 -259.918)"/><path class="i" d="M252.423,314.523V300.646H249.8c-2.353-4.051-6.271-7.865-11.858-11.091-19.3-11.146-50.6-11.146-69.9,0-5.587,3.225-9.5,7.04-11.857,11.091h-2.616v13.8h0c-.033,7.327,4.787,14.662,14.472,20.254,19.3,11.146,50.6,11.146,69.9,0C247.6,329.131,252.423,321.827,252.423,314.523Z" transform="translate(-153.566 -272.108)"/><path class="p" d="M222.522,289.554c-9.65-5.571-22.3-8.358-34.949-8.358v61.866c12.65,0,25.3-2.786,34.951-8.358S237,321.827,237,314.523V300.646H234.38C232.027,296.595,228.11,292.781,222.522,289.554Z" transform="translate(-138.143 -272.108)"/><ellipse class="i" cx="49.429" cy="28.538" rx="49.429" ry="28.538"/><path class="b" d="M237.931,314.472c-19.3,11.146-50.6,11.146-69.9,0-9.25-5.34-14.018-12.274-14.4-19.271-.417,7.6,4.35,15.284,14.4,21.087,19.3,11.146,50.6,11.146,69.9,0,10.051-5.8,14.819-13.482,14.4-21.087C251.949,302.2,247.182,309.132,237.931,314.472Z" transform="translate(-153.551 -265.756)"/><g transform="translate(24.302 15.007)"><path class="k" d="M171.588,308.247a2.226,2.226,0,0,1-1.3-1.821l.049-18.594c0-1.417,2-2.566,4.455-2.564s4.442,1.153,4.441,2.574l-.041,15.416,44.746-5.478c2.406-.3,4.765.592,5.275,1.98s-1.026,2.75-3.427,3.045l-50.126,6.138a7.055,7.055,0,0,1-3.728-.519C171.812,308.368,171.7,308.31,171.588,308.247Z" transform="translate(-170.286 -285.268)"/></g></g><path class="d" d="M603.621,266.8c-4.646-2.682-12.178-2.682-16.823,0l-217,125.331c-4.646,2.682-4.646,7.031,0,9.714s12.178,2.682,16.823,0l217-125.331C608.266,273.832,608.266,269.485,603.621,266.8Z" transform="translate(99.565 104.926)"/><path class="b" d="M378.992,396.807a19.65,19.65,0,0,1-9.659-2.347c-3.009-1.736-4.733-4.3-4.733-7.018s1.724-5.284,4.733-7.019L586.327,255.092c5.417-3.13,13.9-3.127,19.321,0h0c3.007,1.737,4.733,4.3,4.733,7.019s-1.725,5.282-4.733,7.019L388.653,394.46A19.666,19.666,0,0,1,378.992,396.807ZM595.986,257.736a14.709,14.709,0,0,0-7.162,1.68l-217,125.331c-1.4.808-2.237,1.816-2.237,2.695s.837,1.885,2.237,2.695c3.882,2.243,10.444,2.243,14.328,0L603.151,264.806c1.4-.81,2.237-1.815,2.237-2.695s-.836-1.885-2.236-2.695A14.746,14.746,0,0,0,595.986,257.736Z" transform="translate(98.786 99.463)"/><g transform="translate(441.563 307.026)"><path class="b" d="M548.49,222.084h0a.856.856,0,0,0-.919-.4l-11.817,2.561,4.654,7.918,7.986-9.077A.855.855,0,0,0,548.49,222.084Z" transform="translate(-265.15 -221.662)"/><g transform="translate(136.196 1.305)"><path d="M555.1,227.515a5.907,5.907,0,0,0-2.709-4.608,1.934,1.934,0,0,0-1.773-.219,75.481,75.481,0,0,0-38.856,10.4l-.853.5,14.677,24.969,4.335-2.874A75.453,75.453,0,0,0,552.57,232.2l1.856-3.031A1.931,1.931,0,0,0,555.1,227.515Z" transform="translate(-412.615 -222.56)"/><ellipse class="h" cx="8.361" cy="14.482" rx="8.361" ry="14.482" transform="matrix(0.862, -0.507, 0.507, 0.862, 91.083, 15.271)"/><path class="h" d="M466.488,309.388,553.6,255.119,538.919,230.15l-89.775,49.734Z" transform="translate(-440.627 -219.117)"/><ellipse class="h" cx="9.88" cy="17.112" rx="9.88" ry="17.112" transform="translate(0 65.774) rotate(-30.448)"/></g><g transform="translate(21.018 59.987)"><ellipse class="h" cx="9.88" cy="17.112" rx="9.88" ry="17.112" transform="translate(110.209 10.013) rotate(-30.448)"/><path class="i" d="M472.611,285.913c-.061-7.715-5.551-17.056-12.264-20.863-3.356-1.9-6.383-2.061-8.563-.779l-6.529,3.837,3.111,5.292a27.319,27.319,0,0,0,11.121,18.918l3.111,5.294,6.531-3.837h0C471.307,292.493,472.641,289.772,472.611,285.913Z" transform="translate(-327.213 -262.699)"/><path class="g" d="M502.914,288.552c-.061-7.715-5.551-17.056-12.264-20.863-3-1.7-5.739-2-7.845-1.126l-.033-.057L367.53,334.246c-2.18,1.281-3.515,4-3.484,7.861.061,7.715,5.55,17.056,12.264,20.863,3.356,1.9,6.383,2.061,8.561.781h0l115.243-67.74-.032-.057C501.869,294.539,502.94,292.006,502.914,288.552Z" transform="translate(-364.046 -261.5)"/><path class="e" d="M382.652,330.472c-.266-4.554-3.975-10.227-8.285-12.671s-7.589-.734-7.323,3.821,3.974,10.227,8.284,12.671S382.917,335.026,382.652,330.472Z" transform="translate(-362.693 -238.549)"/></g><g transform="translate(146.961 59.149)"><path class="b" d="M470.145,286.406c-.061-7.715-5.551-17.056-12.264-20.863-2.7-1.532-5.185-1.916-7.191-1.345,2.179-2.278,5.753-2.545,9.822-.24,6.712,3.807,12.2,13.147,12.264,20.863.035,4.608-1.882,7.577-4.855,8.425C469.337,291.766,470.169,289.447,470.145,286.406Z" transform="translate(-450.691 -262.354)"/></g><g transform="translate(0 142.248)"><path class="q" d="M378.35,329.219a11.533,11.533,0,0,0-5.289-9c-2.9-1.643-5.224-.275-5.2,3.054a11.542,11.542,0,0,0,5.291,9C376.051,333.917,378.377,332.549,378.35,329.219Z" transform="translate(-341.297 -319.524)"/><path class="i" d="M386.64,329.219a11.534,11.534,0,0,0-5.289-9,3.671,3.671,0,0,0-3.695-.337L353.229,334.24a7.383,7.383,0,1,0,7.483,12.729l24.427-14.357h0A3.671,3.671,0,0,0,386.64,329.219Z" transform="translate(-349.586 -319.524)"/></g><g transform="translate(31.232 70.341)"><path class="j" d="M404.044,306.723l-3.661-2.079c-2.1-1.192-4.887-.894-7.836.839L380,312.861a9.555,9.555,0,0,0-4.259,7.51l.049,6.282a5.157,5.157,0,0,1-1.263,3.156l.469,2.91-3.129-1.792.007,0a1.605,1.605,0,0,1-.747-1.528l-.049-6.282c-.044-5.731,3.939-12.756,8.88-15.661l12.551-7.378c4.194-2.465,8.151-2.888,11.146-1.192l3.661,2.079c2.1,1.192,4.885.894,7.836-.84l50.6-29.74a1.624,1.624,0,0,1,1.672-.163v0L470.538,272l-2.673,1.028a5.169,5.169,0,0,1-2.079,2.757l-50.6,29.741C410.995,308,407.037,308.419,404.044,306.723Z" transform="translate(-371.073 -270.054)"/><path class="j" d="M402.564,305.894c-2.1-1.192-4.887-.9-7.836.837l-12.551,7.378a9.557,9.557,0,0,0-4.259,7.51l.049,6.284a5.181,5.181,0,0,1-2.31,4.074c-1.288.756-2.342.158-2.353-1.334l-.049-6.282c-.044-5.731,3.939-12.756,8.88-15.659l12.551-7.378c4.194-2.465,8.152-2.888,11.146-1.192l3.662,2.077c2.1,1.192,4.887.9,7.836-.839l50.6-29.741c1.288-.757,2.34-.16,2.352,1.334a5.173,5.173,0,0,1-2.31,4.074l-50.6,29.741c-4.195,2.465-8.153,2.888-11.146,1.192Z" transform="translate(-370.084 -269.489)"/><g transform="translate(7.676 51.583)"><path class="b" d="M376.354,307.126l.049,6.284c0,.041-.019.086-.02.128a4.056,4.056,0,0,0,.177-1.166l-.049-6.282c0-.179.028-.366.042-.548A7.056,7.056,0,0,0,376.354,307.126Z" transform="translate(-376.354 -305.542)"/></g></g></g><path class="b" d="M327.444,122.82a15.459,15.459,0,0,0-2.478,1.815c-.343-11.152-8.4-15.586-18.31-9.864-8.073,4.662-14.912,14.64-17.364,24.421a10.944,10.944,0,0,0-6.848,1.7c-7.227,4.172-13.085,14.319-13.085,22.662s5.858,11.726,13.085,7.554l45-25.982c5.336-3.08,9.66-10.572,9.66-16.732S332.78,119.74,327.444,122.82Z" transform="translate(55.59 35.75)"/></g></svg>