<svg id="Group_6789" data-name="Group 6789" xmlns="http://www.w3.org/2000/svg" width="235.655" height="63.49" viewBox="0 0 235.655 63.49">
  <rect id="Rectangle_1984" data-name="Rectangle 1984" width="8.44" height="12.066" transform="translate(13.251 13.337)"/>
  <rect id="Rectangle_1985" data-name="Rectangle 1985" width="8.44" height="12.365" transform="translate(13.239 37.716)"/>
  <path id="Path_10588" data-name="Path 10588" d="M69.25,87.027h4.265a19.319,19.319,0,0,0,4.656-.563,10.987,10.987,0,0,0,3.947-1.816,8.991,8.991,0,0,0,2.738-3.368,11.785,11.785,0,0,0,1.024-5.209,11.827,11.827,0,0,0-1.024-5.238,8.812,8.812,0,0,0-2.738-3.314,11,11,0,0,0-3.893-1.765,19.215,19.215,0,0,0-4.5-.525H69.25" transform="translate(-47.227 -44.485)" fill="none"/>
  <path id="Path_10589" data-name="Path 10589" d="M41.62,41.11v0Z" transform="translate(-28.384 -28.036)"/>
  <rect id="Rectangle_1986" data-name="Rectangle 1986" width="0.229" height="0.003" transform="translate(22.023 42.542)"/>
  <path id="Path_10590" data-name="Path 10590" d="M74.564,50.794a15.663,15.663,0,0,0-4.837-5.712,19.565,19.565,0,0,0-6.847-3.053A33.284,33.284,0,0,0,55.1,41.11H41.62a8.21,8.21,0,0,0,8.1,7.668h5.162a19.215,19.215,0,0,1,4.5.525,11,11,0,0,1,3.893,1.765,8.812,8.812,0,0,1,2.738,3.314,11.77,11.77,0,0,1,1.024,5.238,11.843,11.843,0,0,1-1.024,5.209A8.991,8.991,0,0,1,63.274,68.2a10.986,10.986,0,0,1-3.947,1.819,19.329,19.329,0,0,1-4.656.553H49.408A7.785,7.785,0,0,0,41.62,78.35v.006H55.514a27.079,27.079,0,0,0,7.575-1.081,19.927,19.927,0,0,0,6.71-3.368,17.067,17.067,0,0,0,4.789-5.839,18.266,18.266,0,0,0,1.816-8.434A19.187,19.187,0,0,0,74.564,50.794Z" transform="translate(-28.384 -28.036)" fill="#e11f26"/>
  <path id="Path_10591" data-name="Path 10591" d="M50.614,93.51l.057-7.012H50.63L48.054,93.51H46.375L43.869,86.5h-.041l.054,7.012H41.63V83.6h3.406l2.255,6.36h.057L49.5,83.6h3.463v9.91Z" transform="translate(-28.391 -57.013)"/>
  <path id="Path_10592" data-name="Path 10592" d="M88.965,93.51l-2.15-3.934h-.82V93.51H83.66V83.6h3.778a6.51,6.51,0,0,1,1.393.146,3.639,3.639,0,0,1,1.218.5,2.648,2.648,0,0,1,.862.925,2.862,2.862,0,0,1,.318,1.428,2.633,2.633,0,0,1-.544,1.692,2.994,2.994,0,0,1-1.514.983l2.592,4.239Zm-.108-6.872a.983.983,0,0,0-.146-.566,1.016,1.016,0,0,0-.378-.337,1.606,1.606,0,0,0-.522-.159,3.844,3.844,0,0,0-.544-.045H85.994v2.312h1.139a3.6,3.6,0,0,0,.6-.051,1.851,1.851,0,0,0,.563-.175,1.062,1.062,0,0,0,.417-.363A1.1,1.1,0,0,0,88.856,86.637Z" transform="translate(-57.054 -57.013)"/>
  <path id="Path_10593" data-name="Path 10593" d="M168.39,77.63V39.06h9.369V77.63Z" transform="translate(-114.838 -26.638)"/>
  <path id="Path_10594" data-name="Path 10594" d="M246.6,75.458a34.744,34.744,0,0,1-8.253.925,23.97,23.97,0,0,1-8.539-1.469,19.668,19.668,0,0,1-6.7-4.134,18.85,18.85,0,0,1-4.386-6.4,21.057,21.057,0,0,1-1.59-8.307,21.127,21.127,0,0,1,1.59-8.389,18.661,18.661,0,0,1,4.452-6.4,19.681,19.681,0,0,1,6.647-4.058,23.433,23.433,0,0,1,8.256-1.425,25.3,25.3,0,0,1,8.5,1.39,17.406,17.406,0,0,1,6.36,3.73l-5.874,6.71a10.177,10.177,0,0,0-3.578-2.6,12.225,12.225,0,0,0-5.088-1.008,11.206,11.206,0,0,0-4.516.9,10.9,10.9,0,0,0-3.6,2.5,11.391,11.391,0,0,0-2.369,3.816,13.376,13.376,0,0,0-.846,4.821,15.063,15.063,0,0,0,.763,4.9,10.548,10.548,0,0,0,2.261,3.835,10.28,10.28,0,0,0,3.7,2.506,13.239,13.239,0,0,0,5.041.9,19,19,0,0,0,3.1-.245,11.593,11.593,0,0,0,2.725-.792V60.143h-7.356V52.634h15.9V73.07A29.546,29.546,0,0,1,246.6,75.458Z" transform="translate(-148.079 -24.413)"/>
  <path id="Path_10595" data-name="Path 10595" d="M354.59,77.63V39.06h9.372V77.63Z" transform="translate(-241.822 -26.638)"/>
  <path id="Path_10596" data-name="Path 10596" d="M417.64,47.021V77.637h-9.324V47.021h-10.9V39.07h31.106v7.951Z" transform="translate(-271.031 -26.645)"/>
  <path id="Path_10597" data-name="Path 10597" d="M514.3,77.63l-3-7.572H496.376l-2.834,7.572H483.41l16.181-38.57h9.041l16.019,38.57ZM503.951,49.354l-4.9,13.239h9.7Z" transform="translate(-329.675 -26.638)"/>
  <path id="Path_10598" data-name="Path 10598" d="M623.19,77.63V39.06h9.372V69.514h14.925V77.63Z" transform="translate(-425.001 -26.638)"/>
  <path id="Path_10599" data-name="Path 10599" d="M0,63.49H235.655V0H0Zm2.993-60.5h229.67V60.5H2.993Z"/>
</svg>
