<svg xmlns="http://www.w3.org/2000/svg" xmlns:xlink="http://www.w3.org/1999/xlink" width="235.655" height="63.49" viewBox="0 0 235.655 63.49">
  <defs>
    <clipPath id="clip-path">
      <rect id="Rectangle_1946" data-name="Rectangle 1946" width="8.44" height="12.066" fill="none"/>
    </clipPath>
    <clipPath id="clip-path-2">
      <rect id="Rectangle_1947" data-name="Rectangle 1947" width="8.44" height="12.365" fill="none"/>
    </clipPath>
  </defs>
  <g id="Group_6790" data-name="Group 6790" transform="translate(-360.268 -405.324)">
    <g id="Group_6673" data-name="Group 6673" transform="translate(360.268 405.324)">
      <rect id="Rectangle_1943" data-name="Rectangle 1943" width="8.44" height="12.066" transform="translate(13.251 13.337)" fill="#fff"/>
      <rect id="Rectangle_1944" data-name="Rectangle 1944" width="8.44" height="12.365" transform="translate(13.239 37.716)" fill="#fff"/>
      <path id="Path_10332" data-name="Path 10332" d="M366.921,411.9v0Z" transform="translate(-353.685 -398.822)" fill="#fff"/>
      <rect id="Rectangle_1945" data-name="Rectangle 1945" width="0.229" height="0.003" transform="translate(22.023 42.542)" fill="#fff"/>
      <path id="Path_10333" data-name="Path 10333" d="M375.907,428.6l.058-7.013h-.042l-2.576,7.013h-1.679l-2.507-7.013h-.04l.054,7.013h-2.252v-9.909h3.406l2.254,6.36h.058l2.157-6.36h3.464V428.6Z" transform="translate(-353.683 -392.101)" fill="#fff"/>
      <path id="Path_10334" data-name="Path 10334" d="M378.946,428.6l-2.151-3.933h-.82V428.6h-2.334v-9.909h3.778a6.441,6.441,0,0,1,1.393.147,3.612,3.612,0,0,1,1.217.5,2.63,2.63,0,0,1,.862.925,2.855,2.855,0,0,1,.318,1.428,2.63,2.63,0,0,1-.543,1.691,2.994,2.994,0,0,1-1.514.983l2.592,4.24Zm-.107-6.872a.982.982,0,0,0-.147-.567,1.01,1.01,0,0,0-.378-.336,1.553,1.553,0,0,0-.521-.159,3.852,3.852,0,0,0-.545-.046h-1.271v2.314h1.138a3.6,3.6,0,0,0,.6-.052,1.868,1.868,0,0,0,.563-.175,1.046,1.046,0,0,0,.416-.362A1.1,1.1,0,0,0,378.838,421.726Z" transform="translate(-347.035 -392.101)" fill="#fff"/>
      <path id="Path_10335" data-name="Path 10335" d="M387.186,450.137V411.568h9.37v38.569Z" transform="translate(-333.635 -399.146)" fill="#fff"/>
      <path id="Path_10336" data-name="Path 10336" d="M424.45,450.709a34.819,34.819,0,0,1-8.254.925,23.994,23.994,0,0,1-8.539-1.47,19.64,19.64,0,0,1-6.7-4.134,18.827,18.827,0,0,1-4.385-6.4,22.687,22.687,0,0,1,0-16.7,18.644,18.644,0,0,1,4.452-6.4,19.659,19.659,0,0,1,6.647-4.058,23.4,23.4,0,0,1,8.254-1.424,25.263,25.263,0,0,1,8.5,1.391,17.38,17.38,0,0,1,6.36,3.73l-5.875,6.71a10.15,10.15,0,0,0-3.577-2.6,12.228,12.228,0,0,0-5.089-1.009,11.216,11.216,0,0,0-4.516.9,10.89,10.89,0,0,0-3.6,2.5,11.409,11.409,0,0,0-2.369,3.816,13.433,13.433,0,0,0-.846,4.822,15.07,15.07,0,0,0,.764,4.9,10.567,10.567,0,0,0,2.26,3.836,10.32,10.32,0,0,0,3.706,2.507,13.265,13.265,0,0,0,5.039.9,19.1,19.1,0,0,0,3.105-.245,11.631,11.631,0,0,0,2.726-.792v-7.029h-7.357v-7.508h15.9v20.435A29.614,29.614,0,0,1,424.45,450.709Z" transform="translate(-325.925 -399.662)" fill="#fff"/>
      <path id="Path_10337" data-name="Path 10337" d="M416.952,450.137V411.568h9.37v38.569Z" transform="translate(-304.184 -399.146)" fill="#fff"/>
      <path id="Path_10338" data-name="Path 10338" d="M444.019,419.52v30.615h-9.324V419.52H423.8v-7.95H454.9v7.95Z" transform="translate(-297.41 -399.144)" fill="#fff"/>
      <path id="Path_10339" data-name="Path 10339" d="M468.434,450.137l-3-7.572H450.511l-2.835,7.572H437.544l16.182-38.569h9.04l16.019,38.569Zm-10.349-28.274-4.9,13.238h9.7Z" transform="translate(-283.809 -399.146)" fill="#fff"/>
      <path id="Path_10340" data-name="Path 10340" d="M459.889,450.137V411.568h9.372v30.454h14.925v8.115Z" transform="translate(-261.701 -399.146)" fill="#fff"/>
      <path id="Path_10341" data-name="Path 10341" d="M360.268,468.814H595.923V405.324H360.268Zm2.992-60.5H592.929v57.508H363.26Z" transform="translate(-360.268 -405.324)" fill="#fff"/>
    </g>
    <g id="Group_6675" data-name="Group 6675" transform="translate(373.519 418.661)">
      <g id="Group_6674" data-name="Group 6674" clip-path="url(#clip-path)">
        <path id="Path_10342" data-name="Path 10342" d="M399.866,421.579a15.683,15.683,0,0,0-4.838-5.712,19.58,19.58,0,0,0-6.846-3.052,33.179,33.179,0,0,0-7.783-.919H366.921a8.211,8.211,0,0,0,8.1,7.667h5.161a19.147,19.147,0,0,1,4.5.525,11,11,0,0,1,3.893,1.765,8.8,8.8,0,0,1,2.737,3.314,13.827,13.827,0,0,1,0,10.446,8.993,8.993,0,0,1-2.737,3.368,10.986,10.986,0,0,1-3.947,1.818,19.221,19.221,0,0,1-4.655.553H374.71a7.787,7.787,0,0,0-7.789,7.783v.006h13.894a27.111,27.111,0,0,0,7.576-1.08,19.934,19.934,0,0,0,6.71-3.368,17.088,17.088,0,0,0,4.79-5.839,18.28,18.28,0,0,0,1.814-8.435A19.193,19.193,0,0,0,399.866,421.579Z" transform="translate(-366.936 -412.159)" fill="#040505"/>
      </g>
    </g>
    <g id="Group_6677" data-name="Group 6677" transform="translate(373.508 443.04)">
      <g id="Group_6676" data-name="Group 6676" clip-path="url(#clip-path-2)">
        <path id="Path_10343" data-name="Path 10343" d="M399.866,421.579a15.683,15.683,0,0,0-4.838-5.712,19.58,19.58,0,0,0-6.846-3.052,33.179,33.179,0,0,0-7.783-.919H366.921a8.211,8.211,0,0,0,8.1,7.667h5.161a19.147,19.147,0,0,1,4.5.525,11,11,0,0,1,3.893,1.765,8.8,8.8,0,0,1,2.737,3.314,13.827,13.827,0,0,1,0,10.446,8.993,8.993,0,0,1-2.737,3.368,10.986,10.986,0,0,1-3.947,1.818,19.221,19.221,0,0,1-4.655.553H374.71a7.787,7.787,0,0,0-7.789,7.783v.006h13.894a27.111,27.111,0,0,0,7.576-1.08,19.934,19.934,0,0,0,6.71-3.368,17.088,17.088,0,0,0,4.79-5.839,18.28,18.28,0,0,0,1.814-8.435A19.193,19.193,0,0,0,399.866,421.579Z" transform="translate(-366.925 -436.538)" fill="#040505"/>
      </g>
    </g>
    <path id="Path_10344" data-name="Path 10344" d="M399.866,421.579a15.683,15.683,0,0,0-4.838-5.712,19.58,19.58,0,0,0-6.846-3.052,33.179,33.179,0,0,0-7.783-.919H366.921a8.211,8.211,0,0,0,8.1,7.667h5.161a19.147,19.147,0,0,1,4.5.525,11,11,0,0,1,3.893,1.765,8.8,8.8,0,0,1,2.737,3.314,13.827,13.827,0,0,1,0,10.446,8.993,8.993,0,0,1-2.737,3.368,10.986,10.986,0,0,1-3.947,1.818,19.221,19.221,0,0,1-4.655.553H374.71a7.787,7.787,0,0,0-7.789,7.783v.006h13.894a27.111,27.111,0,0,0,7.576-1.08,19.934,19.934,0,0,0,6.71-3.368,17.088,17.088,0,0,0,4.79-5.839,18.28,18.28,0,0,0,1.814-8.435A19.193,19.193,0,0,0,399.866,421.579Z" transform="translate(6.583 6.502)" fill="#fff"/>
  </g>
</svg>
