<svg xmlns="http://www.w3.org/2000/svg" width="245" height="198" viewBox="0 0 245 198"><defs><style>.a,.f{fill:#fff;}.a{opacity:0;}.b{font-size:20px;font-family:AvenirNext-Regular, Avenir Next;}.c{opacity:0.11;}.d{fill:#1a1818;}.e{fill:#006aa8;}.g{fill:#386696;}.h{fill:#599dd3;}.i{fill:#edf5f8;}.j{fill:#5aa0d5;}</style></defs><g transform="translate(-1291 -12308)"><g transform="translate(302 1253)"><g transform="translate(312 3843)"><g transform="translate(676.976 7212)"><rect class="a" width="245" height="198" transform="translate(0.024)"/></g></g><text class="b" transform="translate(1112 11227.5)"><tspan x="-117.37" y="0">Linkedin Lead Generation</tspan></text></g><g class="c" transform="translate(1289 11988.532)"><g transform="translate(52 345.967)"><path class="d" d="M52,360.325h5.573v20.3H67.894v5.144H52Z" transform="translate(-52 -359.948)"/><g transform="translate(17.929 0)"><path class="d" d="M117.259,367.534h5.358v17.245h-5.358Zm2.679-8.573a3.106,3.106,0,1,1-3.107,3.108,3.109,3.109,0,0,1,3.107-3.108" transform="translate(-116.831 -358.961)"/></g><path class="d" d="M218.738,360.325h5.354v15.208l6.069-7.021h6.565L229.7,376.5l6.879,9.276h-6.731l-5.687-8.525h-.07v8.525h-5.354Z" transform="translate(-172.626 -359.948)"/><path class="d" d="M148.465,388.849h5.143V391.2h.072a5.63,5.63,0,0,1,5.071-2.785c5.429,0,6.429,3.572,6.429,8.215v9.456h-5.358v-8.384c0-2-.037-4.571-2.787-4.571-2.785,0-3.213,2.178-3.213,4.428v8.527h-5.358Z" transform="translate(-121.787 -380.273)"/><path class="d" d="M292.045,395.2a3.213,3.213,0,0,0-3.289-3.287,3.574,3.574,0,0,0-3.783,3.287Zm4.537,7.64a9.434,9.434,0,0,1-7.323,3.431c-5.358,0-9.644-3.572-9.644-9.11s4.286-9.107,9.644-9.107c5,0,8.142,3.572,8.142,9.107v1.678H284.973a4,4,0,0,0,4.035,3.358,4.568,4.568,0,0,0,3.821-2.107Z" transform="translate(-216.668 -380.009)"/><path class="d" d="M359.06,372.69a4.395,4.395,0,1,0,4.287,4.393,4.062,4.062,0,0,0-4.287-4.393m9.219,13.073h-4.932v-2.288h-.07a6.735,6.735,0,0,1-5.323,2.715c-5.145,0-8.538-3.713-8.538-8.963,0-4.824,3-9.251,7.93-9.251,2.216,0,4.286.605,5.5,2.284h.07v-9.936h5.361Z" transform="translate(-267.165 -359.948)"/></g><path class="e" d="M470.455,341h-30.8a2.637,2.637,0,0,0-2.665,2.606v30.923a2.639,2.639,0,0,0,2.665,2.608h30.8a2.643,2.643,0,0,0,2.673-2.608V343.606A2.641,2.641,0,0,0,470.455,341Z" transform="translate(-278.523)"/><path class="f" d="M455.241,367.562h5.364v17.245h-5.364Zm2.683-8.573a3.108,3.108,0,1,1-3.109,3.108,3.109,3.109,0,0,1,3.109-3.108" transform="translate(-291.416 -13.014)"/><path class="f" d="M487.912,388.867h5.138v2.358h.074a5.631,5.631,0,0,1,5.072-2.786c5.426,0,6.428,3.571,6.428,8.215v9.458h-5.358v-8.386c0-2-.035-4.573-2.786-4.573-2.789,0-3.214,2.18-3.214,4.429v8.529h-5.353Z" transform="translate(-315.36 -34.32)"/></g><g transform="translate(1713.857 12236.289)"><path class="g" d="M-256.727,184.2a18.3,18.3,0,0,0,.49,3.09c1.741,5.19,1.6,5.859-3.519,6.179-3.768.237-4.531,2.123-3.606,5.091,1.208,3.875-.4,4.963-3.678,4.536-3.784-.495-6.153.488-6.282,4.917-.082,2.806-1.512,3.769-4.038,2.4-3.9-2.115-6.611-1.526-7.98,3.238-.723,2.518-2.261,2.586-4.438,1.189-4.8-3.079-4.9-2.975-8.541,1.4-1.367,1.641-2.661,2.518-4.267.33-2.674-3.645-5.481-5.117-9.441-1.463-2.441,2.253-3.94-.478-4.519-2.227-1.358-4.1-3.755-4.294-6.965-2.743-3.226,1.558-4.88.606-4.833-3.129.039-3.107-1.514-4-4.377-3.934-5.484.121-5.5-.015-5.628-5.578-.041-1.742.1-3.379-2.242-3.88-6.068-1.3-6.054-1.375-4.555-7.292.193-.759.4-1.513.605-2.269a4.08,4.08,0,0,0-.765-.831c-1.97-1.193-5.041-1.356-5.8-3.5-.717-2.029,1.782-3.8,2.876-5.669,1.367-2.331-.59-3.073-1.689-4.117-3.828-3.638-4-3.787-.046-6.8,2.638-2.011,2.7-3.757.617-6.013-2.565-2.783-2.441-5.007,1.4-6.143,3.651-1.08,4.183-3.307,2.535-6.467-1.816-3.485-.28-4.683,2.98-4.845,3.8-.188,5.508-1.907,4.334-6.033-.784-2.756.067-4.332,3.214-3.555,4.344,1.071,6.79-.486,7.015-5.306.11-2.361,1.181-3.067,3.577-2.282,5.533,1.814,5.669,1.741,8.241-3.342,1.073-2.119,1.912-2.518,4.039-1.215,5.216,3.194,5.376,3.141,9.464-1.377,1.431-1.582,2.36-1.764,3.572-.017.222.32.557.557.772.881,2.163,3.251,4.566,4.267,7.723,1.194,2.593-2.523,4.518-1.663,5.5,1.643,1.176,3.976,3.581,4.262,6.768,2.655,2.7-1.362,4.771-1.225,4.866,2.548.115,4.545,2.649,5.405,6.342,4.643,3.127-.646,4.324.645,3.561,3.793-.952,3.931.762,5.661,4.415,5.766,3.86.11,4.624,2.038,2.869,5.253-1.845,3.378-.325,4.812,2.627,6.121,4.235,1.878,4.359,2.218,1.435,5.913-2.121,2.679-1.973,4.209.752,6.281,3.946,3,3.9,3.347-.2,6.589-2.316,1.831-2.669,3.248-.828,5.727,3.112,4.186,2.955,4.272-1.727,6.677C-255.056,182.73-256.438,182.726-256.727,184.2Zm-74.227-49.635c-3.029-.568-2.9,1.5-2.693,3.144.434,3.381-.668,5.307-4.107,5.534-2.531.167-3.476,1.321-2.195,3.825,1.676,3.275.5,5.288-2.728,6.232-2.9.845-3.135,2.163-1.076,4.342,2.236,2.366,2.7,4.479-.774,6.388-2.428,1.334-2.863,3.065.039,4.853,2.474,1.524,3.221,3.605.784,6.122-2.065,2.131-1.781,4.058,1.214,4.864,3.3.886,4.185,2.675,2.585,5.789-1.37,2.665-.515,3.917,2.364,4.074,2.921.159,4.452,1.642,3.851,4.861-.634,3.4,1.143,4.213,3.938,3.758,2.976-.484,4.9.757,4.986,3.819.112,4.048,2.152,3.33,4.5,2.346,2.262-.947,4.348-1.17,5.341,1.746,1.257,3.689,3.291,4.035,5.959,1.565,2.144-1.984,4.008-1.622,5.361.749,1.782,3.121,3.536,3.031,5.495.333,1.783-2.455,3.591-2.946,6.037-.759,1.447,1.293,3.619,2.532,4.6-.455,1.362-4.138,3.908-4.341,7.176-2.9,2.052.906,3.323.274,3.476-1.952.274-4,2.4-5.069,5.906-4.5,1.91.311,3.1-.576,2.692-2.66-.86-4.436,1.492-5.789,5.157-6.041,2.057-.142,2.909-1.142,1.777-3.106-2.068-3.586-1.1-5.755,2.66-7.027,2.007-.678,2.651-2.153,1.052-3.92-2.5-2.762-2.009-4.911.881-7,2.439-1.76,1.763-3.643-.474-4.906-2.814-1.587-2.769-3.337-.879-5.636,1.737-2.112,1.969-4.03-1.14-5.013-3.079-.974-4.062-2.736-2.371-5.813,1.341-2.44.583-3.892-2.18-4.076-3.451-.23-5.093-1.884-4.481-5.616.353-2.157-.023-3.542-2.828-2.827-3.311.843-5.491-.476-5.685-4.317-.133-2.614-1.743-3.3-3.691-2.25-3.734,2.018-5.676.572-6.89-3.091-.787-2.377-2.386-2.227-3.86-.878-2.864,2.62-5.2,2.181-7.3-.924-1.608-2.379-3.158-1.75-4.5.214-2.081,3.046-4.5,3.143-7.1.918-1.861-1.589-3.222-1.434-4.068.92-1.354,3.767-3.8,4.382-7.126,2.864-1.983-.905-3.187-.414-3.391,2C-325.021,134.48-327.317,135.813-330.954,134.57Z"/><path class="h" d="M-329.067,136.23c3.637,1.244,5.933-.09,6.3-4.4.2-2.415,1.408-2.906,3.391-2,3.323,1.517,5.771.9,7.126-2.864.846-2.354,2.207-2.508,4.068-.92,2.607,2.225,5.023,2.128,7.1-.918,1.34-1.964,2.89-2.593,4.5-.214,2.1,3.106,4.438,3.544,7.3.924,1.475-1.348,3.073-1.5,3.86.878,1.213,3.663,3.156,5.109,6.89,3.091,1.948-1.053,3.557-.364,3.691,2.25.194,3.842,2.374,5.161,5.685,4.317,2.805-.715,3.181.669,2.828,2.827-.612,3.731,1.03,5.385,4.481,5.616,2.763.184,3.521,1.636,2.18,4.076-1.691,3.077-.708,4.839,2.371,5.813,3.109.983,2.877,2.9,1.14,5.013-1.89,2.3-1.936,4.049.879,5.636,2.237,1.263,2.913,3.145.474,4.906-2.89,2.085-3.382,4.235-.881,7,1.6,1.767.955,3.241-1.052,3.92-3.762,1.271-4.728,3.441-2.66,7.027,1.132,1.965.28,2.964-1.777,3.106-3.665.253-6.017,1.6-5.157,6.041.4,2.084-.782,2.971-2.692,2.66-3.5-.571-5.633.5-5.906,4.5-.153,2.226-1.424,2.858-3.476,1.952-3.268-1.443-5.814-1.24-7.176,2.9-.983,2.987-3.155,1.748-4.6.455-2.447-2.187-4.254-1.7-6.037.759-1.959,2.7-3.712,2.788-5.495-.333-1.354-2.37-3.217-2.733-5.361-.749-2.669,2.47-4.7,2.124-5.959-1.565-.994-2.917-3.08-2.693-5.341-1.746-2.35.983-4.391,1.7-4.5-2.346-.085-3.062-2.01-4.3-4.986-3.819-2.8.456-4.572-.36-3.938-3.758.6-3.218-.93-4.7-3.851-4.861-2.879-.157-3.734-1.409-2.364-4.074,1.6-3.114.711-4.9-2.585-5.789-3-.806-3.279-2.732-1.214-4.864,2.437-2.516,1.69-4.6-.784-6.122-2.9-1.787-2.467-3.519-.039-4.853,3.477-1.909,3.01-4.021.774-6.388-2.059-2.179-1.819-3.5,1.076-4.342,3.233-.944,4.4-2.957,2.728-6.232-1.281-2.5-.336-3.658,2.195-3.825,3.44-.227,4.541-2.153,4.107-5.534C-331.97,137.729-332.1,135.662-329.067,136.23Zm30.1,64.663c19.386.036,34.561-15.152,34.023-34.054-.447-15.719-12.716-28.777-29.556-31.46-20.607-3.283-39.332,14.193-38.1,35.558C-331.648,187.46-316.6,200.86-298.968,200.893Z" transform="translate(-1.887 -1.66)"/><path class="i" d="M-295.411,203.9c-17.635-.033-32.68-13.433-33.633-29.956-1.233-21.365,17.492-38.84,38.1-35.558,16.841,2.682,29.109,15.741,29.556,31.46C-260.851,188.751-276.026,203.939-295.411,203.9Zm-.066-61.366c-16.432.006-29.2,12.56-29.185,28.692.015,15.884,13.144,28.678,29.391,28.643,16.3-.035,29.439-12.818,29.455-28.651C-265.8,155.057-278.754,142.53-295.477,142.537Z" transform="translate(-5.444 -4.67)"/><path class="j" d="M-294.157,143.716c16.723-.007,29.676,12.519,29.66,28.684-.015,15.833-13.157,28.616-29.455,28.651-16.247.035-29.375-12.759-29.391-28.643C-323.357,156.276-310.589,143.722-294.157,143.716Zm17.724,18.076c-.4-.3-1.324-1.01-2.273-1.676-1.372-.963-2.118.21-2.924.995q-6.714,6.534-13.393,13.108c-3.8,3.751-3.784,3.769-7.536.279a50.95,50.95,0,0,1-3.962-3.751c-1.43-1.649-2.433-1.225-3.769.148s-1.193,2.328.116,3.573a100.861,100.861,0,0,1,8.273,8.294c2.225,2.671,3.806,2.089,5.89-.006,6.06-6.093,12.225-12.074,18.342-18.106A3.2,3.2,0,0,0-276.433,161.792Z" transform="translate(-6.764 -5.849)"/><path class="i" d="M-272.833,165.951a3.2,3.2,0,0,1-1.236,2.858c-6.117,6.033-12.283,12.014-18.342,18.106-2.084,2.095-3.665,2.677-5.89.006a100.861,100.861,0,0,0-8.273-8.294c-1.309-1.245-1.463-2.189-.116-3.573s2.34-1.8,3.769-.148a50.956,50.956,0,0,0,3.962,3.751c3.752,3.49,3.736,3.472,7.536-.279q6.669-6.584,13.393-13.108c.806-.785,1.552-1.958,2.924-.995C-274.156,164.941-273.237,165.652-272.833,165.951Z" transform="translate(-10.364 -10.008)"/></g></g></svg>