<svg xmlns="http://www.w3.org/2000/svg" xmlns:xlink="http://www.w3.org/1999/xlink" width="691" height="385" viewBox="0 0 691 385">
  <defs>
    <clipPath id="clip-path">
      <rect id="Rectangle_2018" data-name="Rectangle 2018" width="691" height="385" transform="translate(1148 15526)" fill="#fff"/>
    </clipPath>
  </defs>
  <g id="Mask_Group_78" data-name="Mask Group 78" transform="translate(-1148 -15526)" clip-path="url(#clip-path)">
    <g id="Group_11978" data-name="Group 11978" transform="translate(786.363 15700.813) rotate(-30)" opacity="0.165">
      <path id="Path_10698" data-name="Path 10698" d="M773.156,160.424H456.476a15.993,15.993,0,0,0-15.948,15.945V657.006a16,16,0,0,0,15.948,15.946H773.156a16,16,0,0,0,15.95-15.946V176.369A15.993,15.993,0,0,0,773.156,160.424ZM553.4,615.71a10.8,10.8,0,0,1-10.768,10.766H495.649a10.8,10.8,0,0,1-10.766-10.766V568.731a10.8,10.8,0,0,1,10.766-10.766h46.979A10.8,10.8,0,0,1,553.4,568.731Zm0-96.078A10.8,10.8,0,0,1,542.628,530.4H495.649a10.8,10.8,0,0,1-10.766-10.766V472.654a10.8,10.8,0,0,1,10.766-10.766h46.979A10.8,10.8,0,0,1,553.4,472.654Zm0-96.078a10.8,10.8,0,0,1-10.768,10.766H495.649a10.8,10.8,0,0,1-10.766-10.766V376.576a10.8,10.8,0,0,1,10.766-10.766h46.979A10.8,10.8,0,0,1,553.4,376.576ZM649.072,615.71a10.8,10.8,0,0,1-10.766,10.766H591.327A10.8,10.8,0,0,1,580.56,615.71V568.731a10.8,10.8,0,0,1,10.768-10.766h46.979a10.8,10.8,0,0,1,10.766,10.766Zm0-96.078A10.8,10.8,0,0,1,638.306,530.4H591.327a10.8,10.8,0,0,1-10.768-10.766V472.654a10.8,10.8,0,0,1,10.768-10.766h46.979a10.8,10.8,0,0,1,10.766,10.766Zm0-96.078a10.8,10.8,0,0,1-10.766,10.766H591.327a10.8,10.8,0,0,1-10.768-10.766V376.576a10.8,10.8,0,0,1,10.768-10.766h46.979a10.8,10.8,0,0,1,10.766,10.766ZM744.751,615.71a10.8,10.8,0,0,1-10.766,10.766H687a10.8,10.8,0,0,1-10.766-10.766V472.654A10.8,10.8,0,0,1,687,461.888h46.983a10.8,10.8,0,0,1,10.766,10.766Zm0-192.155a10.8,10.8,0,0,1-10.766,10.766H687a10.8,10.8,0,0,1-10.766-10.766V376.576A10.8,10.8,0,0,1,687,365.81h46.983a10.8,10.8,0,0,1,10.766,10.766Zm0-113.194a13.5,13.5,0,0,1-13.457,13.459H498.338a13.5,13.5,0,0,1-13.457-13.459v-90.3A13.5,13.5,0,0,1,498.338,206.6H731.294a13.5,13.5,0,0,1,13.457,13.459Z" transform="translate(0 0)" fill="#fff"/>
      <path id="Path_10699" data-name="Path 10699" d="M560.212,334.548H525.573a5.046,5.046,0,1,0,0,10.092h34.639a5.046,5.046,0,0,0,0-10.092Z" transform="translate(71.924 156.549)" fill="#fff"/>
      <path id="Path_10700" data-name="Path 10700" d="M555.034,275.877c-2.288-1.6-5.631-.763-7.475,1.869l-22.906,32.711c-1.84,2.632-1.485,6.062.8,7.661s5.627.76,7.469-1.872l22.9-32.712C557.67,280.9,557.314,277.474,555.034,275.877Z" transform="translate(74.575 103.069)" fill="#fff"/>
      <path id="Path_10701" data-name="Path 10701" d="M509.83,277.68H475.191a5.046,5.046,0,1,0,0,10.092h3.665v19.112a5.047,5.047,0,0,0,10.094,0V287.772h7.125v19.112a5.046,5.046,0,1,0,10.092,0V287.772h3.663a5.046,5.046,0,1,0,0-10.092Z" transform="translate(26.628 105.421)" fill="#fff"/>
      <path id="Path_10702" data-name="Path 10702" d="M610.591,355.5H575.956a5.046,5.046,0,1,0,0,10.092h34.635a5.046,5.046,0,1,0,0-10.092Z" transform="translate(117.22 175.384)" fill="#fff"/>
      <path id="Path_10703" data-name="Path 10703" d="M610.591,364.19H575.956a5.047,5.047,0,1,0,0,10.094h34.635a5.047,5.047,0,1,0,0-10.094Z" transform="translate(117.22 183.2)" fill="#fff"/>
      <path id="Path_10704" data-name="Path 10704" d="M509.832,342.748H497.56V330.476a5.048,5.048,0,1,0-10.1,0v12.272H475.191a5.047,5.047,0,0,0,0,10.094h12.274v12.272a5.048,5.048,0,0,0,10.1,0V352.841h12.272a5.047,5.047,0,0,0,0-10.094Z" transform="translate(26.628 148.35)" fill="#fff"/>
      <path id="Path_10705" data-name="Path 10705" d="M497.246,395.984l8.679-8.681a5.046,5.046,0,0,0-7.137-7.135l-8.677,8.677-8.681-8.677a5.046,5.046,0,0,0-7.137,7.135l8.679,8.681-8.679,8.677a5.047,5.047,0,1,0,7.139,7.137l8.679-8.679,8.679,8.679a5.046,5.046,0,1,0,7.135-7.137Z" transform="translate(29.029 196.236)" fill="#fff"/>
      <path id="Path_10706" data-name="Path 10706" d="M560.212,385.139H525.573a5.047,5.047,0,0,0,0,10.094h34.639a5.047,5.047,0,0,0,0-10.094Z" transform="translate(71.924 202.034)" fill="#fff"/>
      <path id="Path_10707" data-name="Path 10707" d="M534.976,388.363a5.648,5.648,0,1,0-5.646-5.648A5.647,5.647,0,0,0,534.976,388.363Z" transform="translate(79.839 194.777)" fill="#fff"/>
      <path id="Path_10708" data-name="Path 10708" d="M538.823,282.911a8.5,8.5,0,1,0-8.5,8.5A8.507,8.507,0,0,0,538.823,282.911Zm-11.3,0a2.8,2.8,0,1,1,2.8,2.8A2.8,2.8,0,0,1,527.527,282.911Z" transform="translate(73.096 102.487)" fill="#fff"/>
      <path id="Path_10709" data-name="Path 10709" d="M542.326,289.862a8.5,8.5,0,1,0,8.5,8.495A8.5,8.5,0,0,0,542.326,289.862Zm0,11.294a2.8,2.8,0,1,1,2.8-2.8A2.8,2.8,0,0,1,542.326,301.156Z" transform="translate(83.885 116.374)" fill="#fff"/>
      <path id="Path_10710" data-name="Path 10710" d="M534.977,392.935a5.649,5.649,0,1,0,5.648,5.648A5.649,5.649,0,0,0,534.977,392.935Z" transform="translate(79.838 209.043)" fill="#fff"/>
      <path id="Path_10711" data-name="Path 10711" d="M580.443,281.778q-5.822,5.862-5.823,15.288,0,8.851,5.181,14.165t14.22,5.314a25.914,25.914,0,0,0,11.233-2.081v-8.082a18.411,18.411,0,0,1-9.48,2.52,11.332,11.332,0,0,1-8.631-3.382,12.658,12.658,0,0,1-3.206-9.081q0-5.948,3.4-9.425a11.914,11.914,0,0,1,8.931-3.479,17.207,17.207,0,0,1,8.988,2.355v-8.523a28.322,28.322,0,0,0-9.7-1.449Q586.27,275.916,580.443,281.778Z" transform="translate(120.558 103.835)" fill="#fff"/>
    </g>
  </g>
</svg>
