<svg xmlns="http://www.w3.org/2000/svg" width="57.091" height="67" viewBox="0 0 57.091 67"><defs><style>.a{fill:#e30613;}</style></defs><g transform="translate(-37.863)"><g transform="translate(37.863)"><path d="M94.921,11.173c0-.019,0-.039-.008-.058-.009-.062-.019-.123-.031-.184-.007-.036-.015-.072-.023-.108s-.022-.1-.035-.146c-.023-.086-.049-.171-.078-.255-.009-.025-.017-.051-.026-.076s-.015-.039-.023-.058c-.016-.041-.032-.081-.049-.121l-.014-.032c-.021-.048-.043-.1-.067-.142l-.009-.018q-.038-.076-.08-.15l-.007-.013q-.043-.076-.089-.149l-.008-.012q-.046-.072-.1-.142l-.011-.015q-.048-.067-.1-.132l-.016-.02q-.049-.061-.1-.121l-.021-.025c-.034-.038-.069-.076-.1-.113L93.9,9.056c-.044-.044-.088-.088-.134-.131l-4.3-3.973L85.167.979c-.059-.055-.12-.106-.182-.157l-.038-.03a3.677,3.677,0,0,0-.41-.281L84.525.5c-.087-.051-.177-.1-.269-.141L84.2.338q-.124-.057-.251-.1L83.922.222A3.672,3.672,0,0,0,83.3.057l-.008,0h-.008A3.713,3.713,0,0,0,82.665,0H59.715A4.22,4.22,0,0,0,55.5,4.215V32.166l-.218,0a17.418,17.418,0,1,0,16.6,22.69H90.738a4.22,4.22,0,0,0,4.215-4.215v-39A3.607,3.607,0,0,0,94.921,11.173ZM84.378,3.814l6.876,6.352h-6.23a.646.646,0,0,1-.646-.646ZM69.844,52.236a14.66,14.66,0,0,1-.732,2.617A14.8,14.8,0,1,1,55.281,34.78l.218,0A14.806,14.806,0,0,1,69.844,52.236Zm22.493-1.6h0a1.6,1.6,0,0,1-1.6,1.6H72.5A17.43,17.43,0,0,0,58.117,32.4V4.215a1.6,1.6,0,0,1,1.6-1.6H81.761v6.9a3.267,3.267,0,0,0,3.263,3.263h7.312Z" transform="translate(-37.863)"/><path d="M89.651,284.214a12.522,12.522,0,0,0-2.617-.347q-.167,0-.336,0a12.556,12.556,0,0,0-10.767,19.011,1.309,1.309,0,0,0,2.243-1.348A9.939,9.939,0,0,1,86.7,286.479c.113,0,.224,0,.336.009a9.935,9.935,0,0,1-.336,19.863,10.063,10.063,0,0,1-1.368-.093,1.309,1.309,0,0,0-.357,2.593,12.567,12.567,0,0,0,13.17-7.281,12.552,12.552,0,0,0-8.493-17.356Z" transform="translate(-69.397 -246.716)"/><path class="a" d="M240.127,124.758a1.309,1.309,0,0,0,0,2.617h19.528a1.309,1.309,0,0,0,0-2.617Z" transform="translate(-212.521 -108.432)"/><path class="a" d="M255.729,189.706a1.309,1.309,0,0,0-1.309-1.309H240.127a1.309,1.309,0,0,0,0,2.617H254.42A1.309,1.309,0,0,0,255.729,189.706Z" transform="translate(-212.521 -163.743)"/><path class="a" d="M305.58,252.036H292.967a1.309,1.309,0,0,0,0,2.617H305.58a1.309,1.309,0,0,0,0-2.617Z" transform="translate(-258.447 -219.055)"/><path class="a" d="M328.812,315.674H319.7a1.309,1.309,0,0,0,0,2.617h9.115a1.309,1.309,0,0,0,0-2.617Z" transform="translate(-281.679 -274.365)"/><path class="a" d="M138.643,333.194h4.4a1.309,1.309,0,0,0,0-2.617H139.4l-.418-.721-2.627-4.53a1.309,1.309,0,0,0-2.264,1.313l3.423,5.9A1.308,1.308,0,0,0,138.643,333.194Z" transform="translate(-121.342 -282.186)"/><path class="a" d="M114.455,441.793a1.3,1.3,0,0,0-.12-.226,1.271,1.271,0,0,0-.361-.361,1.289,1.289,0,0,0-.226-.12,1.227,1.227,0,0,0-.245-.075,1.3,1.3,0,0,0-.756.075,1.325,1.325,0,0,0-.225.12,1.3,1.3,0,0,0-.362.361,1.293,1.293,0,0,0-.12.226,1.323,1.323,0,0,0-.075.245,1.288,1.288,0,0,0-.025.255,1.321,1.321,0,0,0,.025.256,1.384,1.384,0,0,0,.075.245,1.325,1.325,0,0,0,.12.225,1.3,1.3,0,0,0,.362.361,1.329,1.329,0,0,0,.225.12,1.282,1.282,0,0,0,.245.075,1.312,1.312,0,0,0,.256.026,1.287,1.287,0,0,0,.255-.026,1.223,1.223,0,0,0,.245-.075,1.293,1.293,0,0,0,.226-.12,1.271,1.271,0,0,0,.361-.361,1.335,1.335,0,0,0,.12-.225,1.4,1.4,0,0,0,.075-.245,1.312,1.312,0,0,0,.026-.256,1.29,1.29,0,0,0-.026-.255A1.323,1.323,0,0,0,114.455,441.793Z" transform="translate(-102.245 -383.278)"/><path class="a" d="M390.567,188.673a1.292,1.292,0,0,0-.121-.226,1.268,1.268,0,0,0-.361-.361,1.344,1.344,0,0,0-.226-.12,1.325,1.325,0,0,0-.245-.075,1.3,1.3,0,0,0-.512,0,1.32,1.32,0,0,0-.245.075,1.391,1.391,0,0,0-.226.12,1.3,1.3,0,0,0-.2.162,1.258,1.258,0,0,0-.164.2,1.3,1.3,0,0,0-.12.226,1.32,1.32,0,0,0-.074.245,1.277,1.277,0,0,0-.025.255,1.309,1.309,0,0,0,.025.257,1.384,1.384,0,0,0,.074.245,1.335,1.335,0,0,0,.12.225,1.258,1.258,0,0,0,.164.2,1.271,1.271,0,0,0,.424.284,1.291,1.291,0,0,0,.5.1,1.287,1.287,0,0,0,.255-.025,1.319,1.319,0,0,0,.245-.075,1.293,1.293,0,0,0,.425-.284,1.241,1.241,0,0,0,.162-.2,1.327,1.327,0,0,0,.121-.225,1.387,1.387,0,0,0,.074-.245,1.313,1.313,0,0,0,.026-.257,1.29,1.29,0,0,0-.026-.255A1.313,1.313,0,0,0,390.567,188.673Z" transform="translate(-342.226 -163.281)"/></g></g></svg>