<svg xmlns="http://www.w3.org/2000/svg" width="67" height="67" viewBox="0 0 67 67"><defs><style>.a{fill:#e30613;}</style></defs><path d="M66.019,6.5H35.432V.981A.981.981,0,0,0,34.451,0H28.327a.981.981,0,0,0-.981.981V6.5H15.335a.981.981,0,0,0-.981.981v8.438a7.47,7.47,0,0,0-1.779,1.321V14.359c0-1.779-1.77-3.24-4.4-3.725V8.5a.981.981,0,0,0-.981-.981A7.512,7.512,0,0,0,2.344,9.354,6.694,6.694,0,0,0,0,14.479v4.112a.982.982,0,0,0,1.963,0V14.479A5.1,5.1,0,0,1,6.209,9.568V47.217a7.505,7.505,0,0,0-4.243,1.894c0-1.336,0-25.3,0-25.3a.982.982,0,0,0-1.963,0V54.292a.978.978,0,0,0,.014.161c.1,2.879,2.76,5.03,6.273,5.03A7.511,7.511,0,0,0,10.632,58.2V61.81c0,3.316,3.317,5.19,6.289,5.19,3.154,0,6.287-1.777,6.287-5.193l0-13.876h27.95L30.79,65.271A.989.989,0,0,0,31.426,67H60.983a.981.981,0,0,0,.981-.981V61.258a.982.982,0,0,0-1.963,0v3.779H34.093L60,42.978V55.843a.982.982,0,0,0,1.963,0V47.932h4.054A.981.981,0,0,0,67,46.95V7.484A.981.981,0,0,0,66.019,6.5Zm-.981,1.963v23.8H42.051V8.466Zm-31.568-6.5V27.081h-4.16V24.573h.713a.982.982,0,0,0,0-1.963h-.713V20.038h1.629a.982.982,0,0,0,0-1.963H29.309V15.5h.713a.981.981,0,1,0,0-1.963h-.713V10.969h1.629a.982.982,0,0,0,0-1.963H29.309V6.434h.713a.982.982,0,0,0,0-1.963h-.713V1.963ZM15.5,17.506a5.171,5.171,0,0,1,1.333-.422l.006,37.649A7.494,7.494,0,0,0,12.6,56.628c0-1.318,0-2.338,0-2.366L12.589,22a5.083,5.083,0,0,1,2.913-4.49Zm5.743,41.437-.1-.056A8.9,8.9,0,0,0,17,57.914v-1.22a5.737,5.737,0,0,1,.794-.06.981.981,0,0,0,1.012-.981L18.8,20.163c1.3.322,2.44.981,2.44,1.712ZM10.612,14.359V51.415A8.738,8.738,0,0,0,6.366,50.4v-1.22a5.687,5.687,0,0,1,.794-.06.982.982,0,0,0,1.013-.981v-35.5c1.495.358,2.44,1.1,2.44,1.718Zm0,40.4c0,1.5-1.981,2.764-4.325,2.764-2.46,0-4.315-1.388-4.315-3.229A4.754,4.754,0,0,1,4.4,49.771v1.65a.982.982,0,0,0,1.074.977,7.23,7.23,0,0,1,4.091.694,1.661,1.661,0,0,1,1.045,1.665Zm6.308,10.28h0c-2.459,0-4.314-1.388-4.315-3.228a4.754,4.754,0,0,1,2.43-4.521v1.65a.981.981,0,0,0,1.074.977c1.665-.157,5.216.111,5.136,2.358,0,1.5-1.98,2.764-4.324,2.765ZM23.2,21.874c0-1.767-1.776-3.237-4.4-3.724V16.019a.981.981,0,0,0-.982-.981,7.108,7.108,0,0,0-1.5.164V8.466H27.346v19.6a.981.981,0,0,0,.981.981h6.123a.981.981,0,0,0,.981-.981V8.466h4.656v37.5H23.205ZM61.394,39.963a.981.981,0,0,0-1.048.144l-6.885,5.862H42.051V34.233H65.037V45.969H61.964V40.854a.982.982,0,0,0-.57-.891Z" transform="translate(0)"/><path class="a" d="M350.821,111.887h9.043a.991.991,0,0,0,.7-.289l4.521-4.518a.981.981,0,0,0,.288-.694v-9.03a1,1,0,0,0-.982-.981h-9.044a.981.981,0,0,0-.694.287l-4.52,4.516a.993.993,0,0,0-.289.695v9.032a.982.982,0,0,0,.982.981Zm.982-9.032h7.08v7.069H351.8Zm9.043,5.682v-6.257l2.559-2.557v6.256Zm-5.1-10.2h6.267l-2.557,2.555h-6.266Z" transform="translate(-304.059 -83.763)"/><path class="a" d="M364.893,314.087h-3.252a.982.982,0,0,0,0,1.963h3.252A.982.982,0,0,0,364.893,314.087Z" transform="translate(-313.49 -272.986)"/><path class="a" d="M369.974,284.242h-8.333a.982.982,0,0,0,0,1.963h8.333A.982.982,0,0,0,369.974,284.242Z" transform="translate(-313.49 -247.046)"/><path d="M343.788,383.754l-11.85,10.089a.989.989,0,0,0,.636,1.729h11.85a.981.981,0,0,0,.981-.981V384.5A.992.992,0,0,0,343.788,383.754Zm-.345,9.855h-8.2l8.2-6.983Z" transform="translate(-288.208 -333.333)"/></svg>