<svg xmlns="http://www.w3.org/2000/svg" width="56.047" height="56.165" viewBox="0 0 56.047 56.165"><defs><style>.a{fill:#e30613;}</style></defs><g transform="translate(-1413.406 -2158.418)"><g transform="translate(1412.406 2157.549)"><path d="M5.788,43.245a15.248,15.248,0,0,0,.759,1.923l1.633-.777A13.2,13.2,0,0,1,7.512,42.7Z" transform="translate(-0.46 -4.017)"/><path d="M10.747,27.58l-.634-.645-.666-.612A15.085,15.085,0,0,0,5,37.06a15.294,15.294,0,0,0,.238,2.689l1.78-.318a13.5,13.5,0,0,1-.21-2.371,13.285,13.285,0,0,1,3.912-9.454Z" transform="translate(-0.384 -2.444)"/><path d="M0,0H1.808V1.808H0Z" transform="translate(24.532 20.07) rotate(-45)"/><path class="a" d="M0,0H1.808V1.809H0Z" transform="translate(27.088 22.626) rotate(-45)"/><path class="a" d="M35.738,32.134l1.663-.708a15.034,15.034,0,0,0-.866-1.717l-1.559.917A12.876,12.876,0,0,1,35.738,32.134Z" transform="translate(-3.263 -2.769)"/><path d="M33.81,28.9l1.43-1.106a15.49,15.49,0,0,0-1.266-1.442l-1.282,1.275A14,14,0,0,1,33.81,28.9Z" transform="translate(-3.043 -2.447)"/><path d="M55.239,20.875c0,2.288-1.234,4.609-3.668,6.9A21.5,21.5,0,0,1,38.906,33.4,18.674,18.674,0,0,0,33.46,21.322l-6.774-6.775,5.05-5.05V9.123a3.981,3.981,0,0,0-3.483-3.945L26.587,4.97l.868-2.82L22.332.869,20.026,3.943,18.591,1.79,12.473,3.014,13.135,5l-1.422.178A3.981,3.981,0,0,0,8.232,9.123V9.5l5.05,5.05L6.507,21.321A18.8,18.8,0,0,0,9.341,50.233a11.756,11.756,0,0,0,10.643,6.8H57.046V20.875ZM36.548,35.338c.814,0,1.621-.041,2.419-.117v20H35.351V35.338Zm4.227-.358a24.294,24.294,0,0,0,3.616-.9V55.226H40.775ZM46.2,33.394a22.922,22.922,0,0,0,3.616-1.947V55.226H46.2ZM28.028,6.972A2.172,2.172,0,0,1,29.9,8.777l-4.865,4.866H23.919l2.129-6.919ZM17.759,3.8,19.94,7.072l3.118-4.158,2.109.527-3.14,10.2h-4.1L14.837,4.385Zm-5.82,3.171,1.781-.222,2.3,6.894H14.934L10.068,8.777a2.173,2.173,0,0,1,1.871-1.805ZM2.808,34.616A16.883,16.883,0,0,1,7.785,22.6l7.149-7.149h10.1L32.182,22.6A16.88,16.88,0,0,1,37.1,33.505c-.186,0-.368.025-.555.025H19.983A11.681,11.681,0,0,0,8.4,47.214a16.933,16.933,0,0,1-5.6-12.6ZM10.04,45.282a9.944,9.944,0,1,1,9.944,9.944,9.955,9.955,0,0,1-9.944-9.944Zm21.7,0a11.741,11.741,0,0,0-5.518-9.944h7.326V55.226H26.217A11.741,11.741,0,0,0,31.735,45.282Zm19.887,9.944V30.119c.4-.33.8-.67,1.186-1.03a16.783,16.783,0,0,0,2.43-2.816V55.226Z" transform="translate(0 0)"/><path class="a" d="M54.644,6.046V16.52h1.808V6.046l2.073,2.073L59.8,6.841,55.548,2.586,51.293,6.841l1.278,1.278Z" transform="translate(-4.829 -0.165)"/><path class="a" d="M45.644,13.046V23.52h1.808V13.046l2.073,2.073L50.8,13.841,46.548,9.586l-4.255,4.255,1.278,1.278Z" transform="translate(-3.965 -0.837)"/></g><path class="a" d="M-3.9,0Q-2.032-3.024-2.16-4.928l-.016-.208h-1.76V-6.672h1.408q-.048-.144-.2-.568a5.95,5.95,0,0,1-.232-.816,3.951,3.951,0,0,1-.08-.792,3.42,3.42,0,0,1,.6-2.08A3.451,3.451,0,0,1-.928-12.112,5,5,0,0,1,.96-12.48a5.03,5.03,0,0,1,1.784.3,3.406,3.406,0,0,1,1.272.784l-.88,1.6a2.388,2.388,0,0,0-.872-.712,2.661,2.661,0,0,0-1.192-.264,2.551,2.551,0,0,0-1.528.432,1.616,1.616,0,0,0-.6,1.408A7.088,7.088,0,0,0-.672-7.04l.1.368H2.672v1.536H-.336a7.242,7.242,0,0,1-.24,1.8,8.482,8.482,0,0,1-.656,1.752H4.176V0Z" transform="translate(1432 2209)"/></g></svg>