<svg xmlns="http://www.w3.org/2000/svg" width="67" height="67" viewBox="0 0 67 67">
  <g id="global" transform="translate(-1 -1)">
    <path id="Path_10610" data-name="Path 10610" d="M35,45h2.161v2.161H35Z" transform="translate(2.742 3.548)"/>
    <path id="Path_10611" data-name="Path 10611" d="M27,45h2.161v2.161H27Z" transform="translate(2.097 3.548)"/>
    <path id="Path_10612" data-name="Path 10612" d="M31,45h2.161v2.161H31Z" transform="translate(2.419 3.548)"/>
    <path id="Path_10613" data-name="Path 10613" d="M32.806,19A10.806,10.806,0,1,0,43.613,29.806,10.819,10.819,0,0,0,32.806,19Zm0,19.452c-.338,0-1.062-1.105-1.58-3.242h3.16C33.869,37.346,33.145,38.452,32.806,38.452Zm-1.966-5.4c-.083-.664-.145-1.38-.174-2.161h4.282c-.029.781-.092,1.5-.174,2.161Zm1.966-11.887c.338,0,1.062,1.105,1.58,3.242h-3.16c.518-2.136,1.242-3.242,1.58-3.242Zm1.966,5.4c.083.664.145,1.38.174,2.161H30.665c.029-.781.092-1.5.174-2.161ZM28.5,28.726H24.236a8.562,8.562,0,0,1,.562-2.161h3.868C28.585,27.275,28.53,28,28.5,28.726Zm-4.269,2.161H28.5c.026.727.081,1.451.161,2.161H24.8A8.608,8.608,0,0,1,24.236,30.887Zm12.873,0h4.269a8.562,8.562,0,0,1-.562,2.161H36.947C37.027,32.338,37.083,31.614,37.108,30.887Zm0-2.161c-.026-.727-.081-1.451-.161-2.161h3.868a8.608,8.608,0,0,1,.562,2.161ZM39.544,24.4H36.606a14.407,14.407,0,0,0-.813-2.7A8.676,8.676,0,0,1,39.544,24.4ZM29.82,21.7a14.407,14.407,0,0,0-.813,2.7H26.069A8.676,8.676,0,0,1,29.82,21.7ZM26.069,35.21h2.938a14.407,14.407,0,0,0,.813,2.7A8.676,8.676,0,0,1,26.069,35.21Zm9.725,2.7a14.407,14.407,0,0,0,.813-2.7h2.938A8.676,8.676,0,0,1,35.793,37.909Z" transform="translate(1.694 1.452)" fill="#e30613"/>
    <path id="Path_10614" data-name="Path 10614" d="M68,16.955V10.982l-2.837-.776q-.139-.371-.309-.739l1.459-2.558L62.09,2.687l-2.556,1.46c-.244-.112-.492-.216-.74-.309L58.018,1H52.046l-.776,2.837c-.249.093-.5.2-.74.309l-2.556-1.46L43.751,6.908,45.21,9.466c-.112.245-.216.492-.309.739l-2.837.776v.826H26.935V1H1V22.613H5.323V35.064A9.721,9.721,0,0,0,1,43.145v.209A9.764,9.764,0,0,0,3.131,49.43L5.323,52.17v1.782a5.4,5.4,0,0,0,10.7,1.081h7.37l-1.621,6.484H18.29a3.246,3.246,0,0,0-3.242,3.242V68h38.9V64.758a3.246,3.246,0,0,0-3.242-3.242H47.231L45.61,55.032H58.274a5.413,5.413,0,0,0,5.294-4.323h1.19A3.246,3.246,0,0,0,68,47.468V38.823a3.246,3.246,0,0,0-3.242-3.242H63.677V23.662l2.636-2.636-1.459-2.558c.112-.245.216-.492.309-.739Zm-10.806,17.1-2.031-2.032a2.61,2.61,0,0,0-4.453,1.846v1.714H49.629a3.246,3.246,0,0,0-3.242,3.242v5.4H20.411c.026-.29.041-.58.041-.872v-.209a9.736,9.736,0,0,0-8.645-9.662V22.613H26.935V18.29h18.2c.026.059.048.119.075.178l-1.459,2.558,4.223,4.222,2.556-1.46c.244.112.492.216.74.309l.776,2.838h5.147ZM24.774,19.41,17.91,14.417a5.424,5.424,0,0,0,.38-.45l6.484-8.645Zm-8.213-6.739a3.243,3.243,0,0,1-5.187,0L4.241,3.161H23.694Zm-6.916,1.3a5.425,5.425,0,0,0,.38.45L3.161,19.41V5.323Zm2.274,1.745a5.266,5.266,0,0,0,4.1,0l6.515,4.738H5.4Zm30.146-1.746v2.161H26.935V13.968ZM7.484,22.613H9.645v10.87a9.657,9.657,0,0,0-2.161.5ZM4.819,48.079a7.593,7.593,0,0,1-1.658-4.726v-.209a7.565,7.565,0,1,1,15.129,0v.209a7.593,7.593,0,0,1-1.658,4.726l-2.1,2.63H11.806V46.188a3.242,3.242,0,1,0-2.161,0V50.71H6.922Zm4.826-4.934a1.081,1.081,0,1,1,1.081,1.081A1.082,1.082,0,0,1,9.645,43.145Zm1.081,14.048a3.246,3.246,0,0,1-3.242-3.242V52.871h6.484v1.081A3.246,3.246,0,0,1,10.726,57.194ZM51.79,64.758v1.081H17.21V64.758a1.082,1.082,0,0,1,1.081-1.081H50.71A1.082,1.082,0,0,1,51.79,64.758ZM45,61.516H24l1.621-6.484H43.382Zm13.271-8.645H16.129v-.7l2.192-2.738a9.724,9.724,0,0,0,1.637-3.043H46.387v1.081a3.246,3.246,0,0,0,3.242,3.242H61.317A3.238,3.238,0,0,1,58.274,52.871Zm7.565-14.048v8.645a1.082,1.082,0,0,1-1.081,1.081H49.629a1.082,1.082,0,0,1-1.081-1.081V38.823a1.082,1.082,0,0,1,1.081-1.081h3.242V33.867a.465.465,0,0,1,.764-.317l4.192,4.192h6.931a1.082,1.082,0,0,1,1.081,1.081Zm-6.484-3.242V23.864c.059-.026.12-.048.179-.075l1.982,1.131V35.581Zm4.114-19.628-.175.566A8.652,8.652,0,0,1,62.676,18l-.277.524,1.22,2.139-1.891,1.89-2.139-1.221-.525.279a8.567,8.567,0,0,1-1.479.618l-.567.174-.648,2.371H53.7l-.648-2.37-.567-.174A8.653,8.653,0,0,1,51,21.612l-.525-.279-2.139,1.221-1.891-1.89,1.22-2.139L47.389,18a8.651,8.651,0,0,1-.618-1.482l-.175-.566-2.37-.651V12.631l2.37-.649.175-.566a8.651,8.651,0,0,1,.618-1.482l.277-.524-1.22-2.139,1.891-1.89L50.475,6.6,51,6.323a8.567,8.567,0,0,1,1.479-.618l.567-.174.648-2.37h2.674l.648,2.37.567.174a8.653,8.653,0,0,1,1.479.618l.525.279,2.139-1.221,1.891,1.89L62.4,9.41l.277.524a8.652,8.652,0,0,1,.618,1.482l.175.566,2.37.651V15.3Z" transform="translate(0 0)"/>
    <path id="Path_10615" data-name="Path 10615" d="M51.484,7a6.484,6.484,0,1,0,6.484,6.484A6.49,6.49,0,0,0,51.484,7Zm0,10.806a4.323,4.323,0,1,1,4.323-4.323A4.327,4.327,0,0,1,51.484,17.806Z" transform="translate(3.548 0.484)"/>
    <path id="Path_10616" data-name="Path 10616" d="M47,41h8.645v2.161H47Z" transform="translate(3.71 3.226)"/>
    <path id="Path_10617" data-name="Path 10617" d="M57,41h2.161v2.161H57Z" transform="translate(4.516 3.226)"/>
    <path id="Path_10618" data-name="Path 10618" d="M47,37H59.968v2.161H47Z" transform="translate(3.71 2.903)"/>
  </g>
</svg>
