<svg xmlns="http://www.w3.org/2000/svg" width="30.204" height="21.696" viewBox="0 0 30.204 21.696">
  <path id="Path_5026" data-name="Path 5026" d="M145.188,839.3a6.037,6.037,0,0,1-1.826-4.589q0-3.474,2.941-7.751a30.262,30.262,0,0,1,7.93-7.574l1.381,1.381a26.535,26.535,0,0,0-3.008,3.764,5.668,5.668,0,0,0-1.091,2.784,1.814,1.814,0,0,0,.713,1.47q.223.223,1.225,1.069a9.209,9.209,0,0,1,1.76,2.005,5.331,5.331,0,0,1,.668,2.85,6.39,6.39,0,0,1-1.693,4.589,5.987,5.987,0,0,1-4.41,1.782A6.4,6.4,0,0,1,145.188,839.3Zm17.686,0a6.211,6.211,0,0,1-1.781-4.589,13.173,13.173,0,0,1,2.246-6.761c.085-.146.356-.565.649-.99a30.3,30.3,0,0,1,7.93-7.574l1.381,1.381a26.536,26.536,0,0,0-3.008,3.764,5.668,5.668,0,0,0-1.091,2.784,1.814,1.814,0,0,0,.713,1.47q.223.223,1.225,1.069a9.21,9.21,0,0,1,1.76,2.005,5.331,5.331,0,0,1,.668,2.85,6.39,6.39,0,0,1-1.693,4.589,5.987,5.987,0,0,1-4.41,1.782A6.207,6.207,0,0,1,162.874,839.3Z" transform="translate(-143.362 -819.387)" fill="#d8001a"/>
</svg>