<svg xmlns="http://www.w3.org/2000/svg" width="17.298" height="17.324" viewBox="0 0 17.298 17.324"><defs><style>.a{fill:#fff;}</style></defs><g transform="translate(0 0)"><path class="a" d="M14.023,37.135a1.7,1.7,0,0,0-1.236-.567,1.762,1.762,0,0,0-1.25.563l-1.155,1.152c-.1-.051-.19-.1-.282-.146-.132-.066-.256-.128-.362-.194A12.557,12.557,0,0,1,6.729,35.2a7.408,7.408,0,0,1-.987-1.558c.3-.274.578-.559.848-.834.1-.1.2-.208.307-.311a1.678,1.678,0,0,0,0-2.53l-1-1c-.113-.113-.23-.23-.34-.347-.219-.227-.45-.461-.687-.68a1.731,1.731,0,0,0-1.225-.537,1.791,1.791,0,0,0-1.243.537l-.007.007L1.153,29.2a2.675,2.675,0,0,0-.793,1.7,6.41,6.41,0,0,0,.468,2.713,15.743,15.743,0,0,0,2.8,4.665A17.206,17.206,0,0,0,9.354,42.77a8.927,8.927,0,0,0,3.218.951c.077,0,.157.007.23.007a2.755,2.755,0,0,0,2.11-.907c0-.007.011-.011.015-.018a8.312,8.312,0,0,1,.64-.662c.157-.15.318-.307.475-.472a1.824,1.824,0,0,0,.552-1.265,1.757,1.757,0,0,0-.563-1.254Zm1.309,3.85s0,0,0,0c-.143.154-.289.292-.446.446a9.616,9.616,0,0,0-.706.731,1.763,1.763,0,0,1-1.375.581c-.055,0-.113,0-.168,0a7.93,7.93,0,0,1-2.852-.856,16.242,16.242,0,0,1-5.4-4.227,14.844,14.844,0,0,1-2.633-4.384,5.221,5.221,0,0,1-.41-2.289,1.678,1.678,0,0,1,.5-1.086L3.1,28.653a.831.831,0,0,1,.556-.26.782.782,0,0,1,.534.256l.011.011c.223.208.435.424.658.654.113.117.23.234.347.355l1,1a.7.7,0,0,1,0,1.133c-.106.106-.208.212-.314.314-.307.314-.6.607-.918.892-.007.007-.015.011-.018.018a.746.746,0,0,0-.19.83l.011.033a8.014,8.014,0,0,0,1.181,1.927l0,0A13.42,13.42,0,0,0,9.2,38.773a4.993,4.993,0,0,0,.45.245c.132.066.256.128.362.194.015.007.029.018.044.026a.793.793,0,0,0,.362.091.782.782,0,0,0,.556-.252l1.25-1.25a.827.827,0,0,1,.552-.274.745.745,0,0,1,.527.267l.007.007,2.015,2.015A.723.723,0,0,1,15.332,40.985Z" transform="translate(-0.345 -26.404)"/><path class="a" d="M245.35,86.9a4.706,4.706,0,0,1,3.832,3.832.491.491,0,0,0,.486.41.651.651,0,0,0,.084-.007.494.494,0,0,0,.406-.57,5.69,5.69,0,0,0-4.636-4.636.5.5,0,0,0-.57.4A.488.488,0,0,0,245.35,86.9Z" transform="translate(-236.001 -82.784)"/><path class="a" d="M256.983,7.642A9.369,9.369,0,0,0,249.349.008a.493.493,0,1,0-.161.973A8.368,8.368,0,0,1,256.01,7.8a.491.491,0,0,0,.486.41.654.654,0,0,0,.084-.007A.484.484,0,0,0,256.983,7.642Z" transform="translate(-239.692 0)"/></g></svg>