<?xml version="1.0" encoding="UTF-8"?> <svg xmlns="http://www.w3.org/2000/svg" width="146.927" height="149.925" viewBox="0 0 146.927 149.925"><defs><style>.a{fill:#e30613;opacity:0.034;}</style></defs><path class="a" d="M724.112,393.322h-70.6v29h40.344a34.588,34.588,0,0,1-4.655,12.036,35.019,35.019,0,0,1-10.3,10.59c-6.713,4.5-15.3,7.156-25.386,7.156-.1,0-.2-.006-.3-.007a43.936,43.936,0,0,1-34.71-17.739,45.9,45.9,0,0,1-6.637-12.316c-.1-.282-.2-.561-.3-.845a44.3,44.3,0,0,1,0-28.485c.094-.284.2-.563.3-.845a45.9,45.9,0,0,1,6.637-12.316,43.934,43.934,0,0,1,34.71-17.738c.1,0,.2-.007.3-.007a40.5,40.5,0,0,1,28.656,11.211l21.338-21.338.163-.163a72.041,72.041,0,0,0-50.157-19.525l-.3,0a74.935,74.935,0,0,0-66.691,41.3q-1.53,3.052-2.787,6.262a75,75,0,0,0,0,54.806q1.259,3.205,2.787,6.262a74.955,74.955,0,0,0,66.691,41.295l.3,0c20.24,0,37.209-6.713,49.611-18.162a67.556,67.556,0,0,0,18.5-29.4,84.108,84.108,0,0,0,3.852-25.7A86.078,86.078,0,0,0,724.112,393.322Z" transform="translate(-578.549 -331.989)"></path></svg> 