<?xml version="1.0" encoding="UTF-8"?> <svg xmlns="http://www.w3.org/2000/svg" width="131.123" height="157.835" viewBox="0 0 131.123 157.835"><defs><style>.a{opacity:0.034;}.b{fill:#e30613;}</style></defs><g class="a" transform="translate(-42.782)"><path class="b" d="M42.782,180H173.9v14.049H42.782Z" transform="translate(0 -123.805)"></path><path class="b" d="M42.782,266.8l51.512,36.05v30.371l28.1-7.8V302.854L173.9,266.8V255H42.782Z" transform="translate(0 -175.39)"></path><path class="b" d="M210.864,31.5a28.334,28.334,0,0,0-7.2-5.086,16.39,16.39,0,1,0-25.905,0,28.332,28.332,0,0,0-7.2,5.086,27.575,27.575,0,0,0-8.021,15.327h56.35A27.578,27.578,0,0,0,210.864,31.5Z" transform="translate(-82.367 0)"></path></g></svg> 