<?xml version="1.0" encoding="UTF-8"?> <svg xmlns="http://www.w3.org/2000/svg" width="140" height="140" viewBox="0 0 140 140"><defs><style>.a{opacity:0.034;}.b{fill:#e30613;}</style></defs><g class="a"><path class="b" d="M127.7,197.406v8.2a4.1,4.1,0,0,1,4.1,4.1c0,4.838-1.585,5.521-9.633,7.383-8.22-32.567-48.445-35.371-82.252-29.181C37.56,183.323,32.249,181,24.05,181H16.723l-.044,26.315a35.322,35.322,0,0,0-4.779,6.5H0v24.609H11.905a41.927,41.927,0,0,0,16.747,16.343l5.579,16.743H57.7v-8.6a91.984,91.984,0,0,0,16.406.052v8.544H97.566l5.611-16.831c12.645-6.961,20.144-17.713,20.144-28.559,0-.287-.042-.568-.048-.854l.585-.139c7.8-1.8,16.142-3.66,16.142-15.413A12.319,12.319,0,0,0,127.7,197.406ZM41.289,222.016h-8.2v-8.2h8.2Zm36.914-8.2H53.594v-8.2H78.2Zm0,0" transform="translate(0 -131.508)"></path><path class="b" d="M151,24.883A24.611,24.611,0,1,0,175.609,0,24.636,24.636,0,0,0,151,24.883Zm28.711,8.2h-8.2V16.68h8.2Zm0,0" transform="translate(-109.711)"></path></g></svg> 