<svg xmlns="http://www.w3.org/2000/svg" xmlns:xlink="http://www.w3.org/1999/xlink" width="609" height="609" viewBox="0 0 609 609"><defs><style>.a,.d{fill:#e30613;}.a{clip-rule:evenodd;}.b{fill:#fff;}.c{clip-path:url(#c);}.e{clip-path:url(#d);}.f{clip-path:url(#e);}.g{clip-path:url(#f);}.h{filter:url(#a);}</style><filter id="a" x="0" y="0" width="609" height="609" filterUnits="userSpaceOnUse"><feOffset input="SourceAlpha"/><feGaussianBlur stdDeviation="33.5" result="b"/><feFlood flood-opacity="0.153"/><feComposite operator="in" in2="b"/><feComposite in="SourceGraphic"/></filter><clipPath id="c"><path class="a" d="M362.762,245.624a123.446,123.446,0,0,0-1.955-21.989H259.56v41.583h57.856a49.457,49.457,0,0,1-21.451,32.447v26.973h34.742c20.328-18.715,32.055-46.274,32.055-79.014Zm0,0" transform="translate(-259.56 -223.635)"/></clipPath><clipPath id="d"><path class="a" d="M196.55,376.9c29.025,0,53.36-9.626,71.146-26.045l-34.742-26.973c-9.627,6.45-21.94,10.262-36.4,10.262-28,0-51.7-18.911-60.152-44.32H100.483v27.853A107.46,107.46,0,0,0,196.55,376.9Zm0,0" transform="translate(-100.483 -289.822)"/></clipPath><clipPath id="e"><path class="a" d="M128.9,244.76a63.543,63.543,0,0,1,0-40.85V176.057H92.983a107.638,107.638,0,0,0,0,96.556L128.9,244.76Zm0,0" transform="translate(-81.549 -176.057)"/></clipPath><clipPath id="f"><path class="a" d="M196.55,120.745c15.783,0,29.954,5.424,41.1,16.077l30.833-30.834c-18.617-17.347-42.952-28-71.929-28a107.461,107.461,0,0,0-96.067,59.224L136.4,165.065c8.453-25.41,32.152-44.32,60.152-44.32Zm0,0" transform="translate(-100.483 -77.989)"/></clipPath></defs><g transform="translate(-1210.5 -2250.5)"><g class="h" transform="matrix(1, 0, 0, 1, 1210.5, 2250.5)"><circle class="b" cx="204" cy="204" r="204" transform="translate(100.5 100.5)"/></g><g transform="translate(1328.18 2369.284)"><g transform="translate(189.051 165.945)"><g class="c"><rect class="d" width="222.648" height="220.449" transform="translate(-59.723 -59.723)"/></g></g><g transform="translate(92.983 205.916)"><g class="e"><rect class="d" width="286.66" height="206.523" transform="translate(-59.723 -59.723)"/></g></g><g transform="translate(81.549 137.213)"><g class="f"><rect class="d" width="166.796" height="216.003" transform="translate(-59.723 -59.723)"/></g></g><g transform="translate(92.983 77.989)"><g class="g"><rect class="d" width="287.442" height="206.523" transform="translate(-59.723 -59.723)"/></g></g></g></g></svg>