<?xml version="1.0" encoding="utf-8"?>
<!-- Generator: Adobe Illustrator 25.1.0, SVG Export Plug-In . SVG Version: 6.00 Build 0)  -->
<svg version="1.1" id="Layer_1" xmlns="http://www.w3.org/2000/svg" xmlns:xlink="http://www.w3.org/1999/xlink" x="0px" y="0px"
	 viewBox="0 0 244 44" style="enable-background:new 0 0 244 44;" xml:space="preserve">
<style type="text/css">
	.st0{fill-rule:evenodd;clip-rule:evenodd;fill:#1ED760;}
	.st1{fill:#1DD15D;}
</style>
<g>
	<path id="Spotify_Icon_RGB_Green-4-6" class="st0" d="M127.7,20c-5.1-3-13.5-3.3-18.3-1.8c-0.8,0.2-1.6-0.2-1.8-1
		c-0.2-0.8,0.2-1.6,1-1.8c5.6-1.7,14.8-1.4,20.7,2.1c0.7,0.4,0.9,1.3,0.5,2C129.3,20.2,128.4,20.4,127.7,20L127.7,20z M127.6,24.5
		c-0.4,0.6-1.1,0.8-1.7,0.4c-4.2-2.6-10.7-3.4-15.7-1.8c-0.6,0.2-1.3-0.2-1.5-0.8c-0.2-0.6,0.2-1.3,0.8-1.5
		c5.7-1.7,12.8-0.9,17.7,2.1C127.7,23.2,127.9,23.9,127.6,24.5L127.6,24.5z M125.6,28.8c-0.3,0.5-0.9,0.6-1.4,0.3
		c-3.7-2.3-8.4-2.8-13.8-1.5c-0.5,0.1-1.1-0.2-1.2-0.7c-0.1-0.5,0.2-1.1,0.7-1.2c6-1.4,11.2-0.8,15.3,1.8
		C125.8,27.7,125.9,28.3,125.6,28.8L125.6,28.8z M118.4,6.1c-8.7,0-15.8,7.1-15.8,15.8c0,8.7,7.1,15.8,15.8,15.8
		c8.7,0,15.8-7.1,15.8-15.8C134.2,13.1,127.1,6.1,118.4,6.1L118.4,6.1z"/>
	<path id="path4-2" class="st1" d="M240.7,32.5c-1.5,0-2.6-1.2-2.6-2.6c0-1.5,1.1-2.7,2.7-2.7c1.5,0,2.6,1.2,2.6,2.6
		C243.4,31.3,242.2,32.5,240.7,32.5 M240.8,27.4c-1.3,0-2.4,1.1-2.4,2.4c0,1.3,1,2.4,2.4,2.4c1.3,0,2.4-1.1,2.4-2.4
		C243.1,28.5,242.1,27.4,240.8,27.4 M241.3,30.1l0.8,1h-0.6l-0.7-1h-0.6v1h-0.5v-2.8h1.2c0.6,0,1.1,0.3,1.1,0.9
		C242,29.7,241.7,30,241.3,30.1 M240.9,28.9h-0.7v0.9h0.7c0.3,0,0.6-0.2,0.6-0.4C241.4,29,241.2,28.9,240.9,28.9"/>
	<path id="path8-8" class="st1" d="M150.5,19.4c-4.2-1-5-1.7-5-3.2c0-1.4,1.3-2.4,3.3-2.4s3.8,0.7,5.7,2.2c0.1,0.1,0.1,0.1,0.2,0.1
		s0.1-0.1,0.2-0.1l2-2.9c0.1-0.1,0.1-0.3-0.1-0.4c-2.4-1.8-5-2.8-8-2.8c-4.5,0-7.7,2.7-7.7,6.6c0,4.1,2.7,5.7,7.5,6.8
		c4,1,4.7,1.7,4.7,3.1c0,1.5-1.4,2.5-3.6,2.5c-2.4,0-4.5-0.8-6.7-2.7c-0.1-0.1-0.1-0.1-0.2-0.1s-0.1,0.1-0.2,0.1l-2.3,2.7
		c-0.1,0.1-0.1,0.3,0,0.4c2.6,2.3,5.8,3.6,9.2,3.6c4.9,0,8-2.7,8-6.8C157.7,22.5,155.6,20.6,150.5,19.4"/>
	<path id="path10-4" class="st1" d="M168.7,15.2c-2.1,0-3.8,0.8-5.3,2.6v-1.9c0-0.1-0.1-0.3-0.3-0.3h-3.8c-0.1,0-0.3,0.1-0.3,0.3
		v21.4c0,0.1,0.1,0.3,0.3,0.3h3.8c0.1,0,0.3-0.1,0.3-0.3v-6.8c1.4,1.6,3.2,2.4,5.3,2.4c4,0,7.9-3,7.9-8.8
		C176.6,18.2,172.7,15.2,168.7,15.2 M172.3,24c0,2.9-1.8,5-4.4,5c-2.6,0-4.5-2.2-4.5-5c0-2.9,1.9-5,4.5-5
		C170.4,19,172.3,21.1,172.3,24"/>
	<path id="path12-2" class="st1" d="M186.8,15.2c-5,0-9.1,3.9-9.1,8.9c0,4.9,4,8.8,9,8.8c5.1,0,9.1-3.9,9.1-8.9
		C195.9,19.1,191.9,15.2,186.8,15.2 M186.8,29c-2.7,0-4.7-2.2-4.7-5s2-5,4.7-5c2.7,0,4.8,2.2,4.8,5S189.6,29,186.8,29"/>
	<path id="path14-6" class="st1" d="M206.6,15.5h-4.1v-4.2c0-0.1-0.1-0.3-0.3-0.3h-3.8c-0.1,0-0.3,0.1-0.3,0.3v4.2h-1.8
		c-0.1,0-0.3,0.1-0.3,0.3V19c0,0.1,0.1,0.3,0.3,0.3h1.8v8.4c0,3.4,1.7,5.1,5,5.1c1.3,0,2.5-0.3,3.5-0.9c0.1-0.1,0.1-0.1,0.1-0.3
		v-3.1c0-0.1-0.1-0.2-0.1-0.3c-0.1-0.1-0.2-0.1-0.3,0c-0.7,0.4-1.4,0.5-2.2,0.5c-1.2,0-1.7-0.6-1.7-1.8v-7.7h4.1
		c0.1,0,0.3-0.1,0.3-0.3v-3.3C207,15.7,206.8,15.5,206.6,15.5"/>
	<path id="path16-9" class="st1" d="M221.1,15.5V15c0-1.5,0.6-2.2,1.9-2.2c0.8,0,1.4,0.1,2.1,0.4c0.1,0,0.2,0,0.3-0.1
		s0.1-0.1,0.1-0.3V9.7c0-0.1-0.1-0.3-0.2-0.3c-0.8-0.2-1.7-0.4-3.1-0.4c-3.4,0-5.3,2-5.3,5.7v0.8h-1.8c-0.1,0-0.3,0.1-0.3,0.3v3.3
		c0,0.1,0.1,0.3,0.3,0.3h1.8V32c0,0.1,0.1,0.3,0.3,0.3h3.8c0.1,0,0.3-0.1,0.3-0.3V19.3h3.5l5.4,12.9c-0.6,1.3-1.2,1.6-2,1.6
		c-0.6,0-1.3-0.2-2-0.6c-0.1-0.1-0.1-0.1-0.2,0c-0.1,0-0.1,0.1-0.2,0.1l-1.3,2.8c-0.1,0.1,0,0.3,0.1,0.4c1.3,0.7,2.6,1,4,1
		c2.8,0,4.3-1.3,5.7-4.8l6.5-16.8c0.1-0.1,0-0.2,0-0.3c-0.1-0.1-0.1-0.1-0.3-0.1h-3.9c-0.1,0-0.2,0.1-0.3,0.2l-4,11.5l-4.4-11.5
		c-0.1-0.1-0.1-0.2-0.3-0.2L221.1,15.5z"/>
	<path id="path18-8" class="st1" d="M212.7,15.5h-3.8c-0.1,0-0.3,0.1-0.3,0.3v16.4c0,0.1,0.1,0.3,0.3,0.3h3.8c0.1,0,0.3-0.1,0.3-0.3
		V15.8C213,15.7,212.9,15.5,212.7,15.5"/>
	<path id="path20-4" class="st1" d="M210.9,8.1c-1.5,0-2.7,1.2-2.7,2.7c0,1.5,1.2,2.7,2.7,2.7c1.5,0,2.7-1.2,2.7-2.7
		C213.5,9.3,212.3,8.1,210.9,8.1"/>
</g>
<g>
	<path d="M1.4,28.2V16h3v9.7h4.7v2.6H1.4z"/>
	<path d="M10.4,28.2V16h3v12.2H10.4z"/>
	<path d="M22.4,19.2c-0.3-0.3-0.6-0.6-1-0.8c-0.4-0.2-0.8-0.3-1.2-0.3c-0.2,0-0.4,0-0.6,0.1c-0.2,0-0.4,0.1-0.5,0.2
		c-0.2,0.1-0.3,0.2-0.4,0.4c-0.1,0.2-0.2,0.4-0.2,0.6c0,0.2,0,0.4,0.1,0.5c0.1,0.1,0.2,0.3,0.4,0.4c0.2,0.1,0.4,0.2,0.6,0.3
		c0.2,0.1,0.5,0.2,0.8,0.3c0.4,0.1,0.8,0.3,1.3,0.5c0.4,0.2,0.9,0.4,1.2,0.7c0.4,0.3,0.7,0.6,0.9,1c0.2,0.4,0.4,0.9,0.4,1.5
		c0,0.7-0.1,1.3-0.4,1.8c-0.3,0.5-0.6,0.9-1,1.3c-0.4,0.3-0.9,0.6-1.5,0.7c-0.6,0.2-1.1,0.2-1.7,0.2c-0.9,0-1.7-0.2-2.5-0.5
		c-0.8-0.3-1.5-0.7-2-1.3l1.9-2c0.3,0.4,0.7,0.7,1.2,0.9c0.5,0.2,1,0.4,1.5,0.4c0.2,0,0.4,0,0.6-0.1c0.2,0,0.4-0.1,0.5-0.2
		c0.2-0.1,0.3-0.2,0.4-0.4c0.1-0.2,0.1-0.4,0.1-0.6c0-0.2-0.1-0.4-0.2-0.6c-0.1-0.2-0.3-0.3-0.5-0.4c-0.2-0.1-0.5-0.3-0.8-0.4
		c-0.3-0.1-0.7-0.2-1.1-0.4c-0.4-0.1-0.8-0.3-1.1-0.4c-0.4-0.2-0.7-0.4-1-0.7c-0.3-0.3-0.5-0.6-0.7-1c-0.2-0.4-0.3-0.9-0.3-1.4
		c0-0.7,0.1-1.3,0.4-1.7c0.3-0.5,0.6-0.9,1.1-1.2c0.4-0.3,1-0.5,1.5-0.7c0.6-0.1,1.1-0.2,1.7-0.2c0.7,0,1.4,0.1,2.1,0.4
		c0.7,0.3,1.4,0.6,1.9,1.1L22.4,19.2z"/>
	<path d="M31.2,18.5v9.7h-3v-9.7h-3.5V16h9.9v2.5H31.2z"/>
	<path d="M36,28.2V16h8.2v2.5h-5.4v2.3h5.1v2.4h-5.1v2.5h5.7v2.5H36z"/>
	<path d="M54.2,28.2l-4.9-8h-0.1l0.1,8h-2.9V16h3.4l4.9,8h0.1l-0.1-8h2.9v12.2H54.2z"/>
	<path d="M77.2,22.1c0,1-0.2,1.9-0.5,2.7c-0.3,0.8-0.8,1.5-1.4,2.1c-0.6,0.6-1.3,1-2.1,1.3c-0.8,0.3-1.7,0.5-2.7,0.5
		s-1.8-0.2-2.7-0.5c-0.8-0.3-1.5-0.8-2.1-1.3c-0.6-0.6-1.1-1.3-1.4-2.1c-0.3-0.8-0.5-1.7-0.5-2.7c0-1,0.2-1.9,0.5-2.7s0.8-1.5,1.4-2
		c0.6-0.6,1.3-1,2.1-1.3c0.8-0.3,1.7-0.4,2.7-0.4s1.8,0.1,2.7,0.4c0.8,0.3,1.5,0.7,2.1,1.3c0.6,0.6,1.1,1.2,1.4,2
		C77,20.2,77.2,21.1,77.2,22.1z M74,22.1c0-0.5-0.1-1-0.3-1.5c-0.2-0.5-0.4-0.9-0.7-1.2c-0.3-0.3-0.7-0.6-1.1-0.8
		c-0.4-0.2-0.9-0.3-1.4-0.3s-1,0.1-1.4,0.3c-0.4,0.2-0.8,0.4-1.1,0.8c-0.3,0.3-0.6,0.7-0.7,1.2c-0.2,0.5-0.3,1-0.3,1.5
		c0,0.6,0.1,1.1,0.3,1.5s0.4,0.9,0.7,1.2c0.3,0.3,0.7,0.6,1.1,0.8s0.9,0.3,1.4,0.3s1-0.1,1.4-0.3c0.4-0.2,0.8-0.5,1.1-0.8
		c0.3-0.3,0.6-0.7,0.7-1.2C73.9,23.1,74,22.6,74,22.1z"/>
	<path d="M86.9,28.2l-4.9-8H82l0.1,8h-2.9V16h3.4l4.9,8h0.1l-0.1-8h2.9v12.2H86.9z"/>
</g>
</svg>
