<svg xmlns="http://www.w3.org/2000/svg" width="16.439" height="16.439" viewBox="0 0 16.439 16.439"><defs><style>.a{fill:#c4c4c4;}</style></defs><path class="a" d="M14.032,2.407A8.219,8.219,0,0,0,2.407,14.032,8.219,8.219,0,0,0,14.032,2.407ZM8.219,15.476A7.231,7.231,0,0,1,3.185,13.44a5.3,5.3,0,0,1,10.07,0A7.231,7.231,0,0,1,8.219,15.476ZM5.811,6.421A2.408,2.408,0,1,1,8.219,8.83,2.411,2.411,0,0,1,5.811,6.421Zm8.166,6.208A6.279,6.279,0,0,0,10.2,9.151a3.371,3.371,0,1,0-3.953,0A6.279,6.279,0,0,0,2.461,12.63a7.256,7.256,0,1,1,11.516,0Z" transform="translate(0 0)"/></svg>