<svg xmlns="http://www.w3.org/2000/svg" width="15.051" height="11.453" viewBox="0 0 15.051 11.453"><defs><style>.a{fill:#c4c4c4;}</style></defs><g transform="translate(-4.178 -3.18)"><g transform="translate(4.178 3.18)"><path class="a" d="M13.213,57.75H1.84A1.842,1.842,0,0,0,0,59.59v7.772A1.842,1.842,0,0,0,1.84,69.2H13.209a1.842,1.842,0,0,0,1.84-1.84V59.593A1.84,1.84,0,0,0,13.213,57.75Zm1,9.613a1,1,0,0,1-1,1H1.84a1,1,0,0,1-1-1V59.593a1,1,0,0,1,1-1H13.209a1,1,0,0,1,1,1v7.769Z" transform="translate(0 -57.75)"/><path class="a" d="M63.508,112.94l3.681-3.3a.421.421,0,0,0-.564-.626l-5.076,4.556-.99-.884s-.006-.006-.006-.009a.623.623,0,0,0-.069-.059l-4.029-3.606a.421.421,0,1,0-.561.629l3.724,3.329L55.91,116.44a.422.422,0,0,0-.019.595.43.43,0,0,0,.308.134.421.421,0,0,0,.286-.112l3.765-3.522,1.021.912a.419.419,0,0,0,.561,0l1.049-.94,3.743,3.556a.421.421,0,0,0,.595-.016.422.422,0,0,0-.016-.595Z" transform="translate(-54.016 -107.31)"/></g></g></svg>