<svg xmlns="http://www.w3.org/2000/svg" width="14.781" height="14.801" viewBox="0 0 14.781 14.801"><defs><style>.a{fill:#c4c4c4;}</style></defs><path class="a" d="M12.031,35.719a1.456,1.456,0,0,0-1.056-.484,1.505,1.505,0,0,0-1.068.481L8.92,36.7c-.081-.044-.162-.084-.241-.125-.112-.056-.219-.109-.309-.166A10.729,10.729,0,0,1,5.8,34.066a6.329,6.329,0,0,1-.843-1.331c.256-.234.494-.478.725-.712.087-.087.175-.178.262-.266a1.433,1.433,0,0,0,0-2.162l-.853-.853c-.1-.1-.2-.2-.291-.3-.187-.194-.384-.394-.587-.581a1.479,1.479,0,0,0-1.047-.459,1.53,1.53,0,0,0-1.062.459l-.006.006L1.035,28.943A2.285,2.285,0,0,0,.357,30.4a5.476,5.476,0,0,0,.4,2.318A13.451,13.451,0,0,0,3.147,36.7a14.7,14.7,0,0,0,4.9,3.833,7.627,7.627,0,0,0,2.749.812c.066,0,.134.006.2.006a2.354,2.354,0,0,0,1.8-.775c0-.006.009-.009.012-.016A7.1,7.1,0,0,1,13.35,40c.134-.128.272-.262.406-.4a1.558,1.558,0,0,0,.472-1.081,1.5,1.5,0,0,0-.481-1.071Zm1.118,3.289s0,0,0,0c-.122.131-.247.25-.381.381a8.213,8.213,0,0,0-.6.625,1.506,1.506,0,0,1-1.175.5c-.047,0-.1,0-.144,0a6.775,6.775,0,0,1-2.437-.731A13.877,13.877,0,0,1,3.8,36.165,12.682,12.682,0,0,1,1.551,32.42a4.46,4.46,0,0,1-.35-1.956,1.434,1.434,0,0,1,.431-.928L2.7,28.471a.71.71,0,0,1,.475-.222.668.668,0,0,1,.456.219l.009.009c.191.178.372.362.562.559.1.1.2.2.3.3l.853.853a.6.6,0,0,1,0,.968c-.091.091-.178.181-.269.269-.262.269-.512.519-.784.762-.006.006-.012.009-.016.016a.637.637,0,0,0-.162.709l.009.028a6.847,6.847,0,0,0,1.009,1.646l0,0a11.466,11.466,0,0,0,2.774,2.524,4.266,4.266,0,0,0,.384.209c.112.056.219.109.309.166.012.006.025.016.037.022a.677.677,0,0,0,.309.078.668.668,0,0,0,.475-.216L10.5,36.309a.707.707,0,0,1,.472-.234.636.636,0,0,1,.45.228l.006.006,1.721,1.721A.618.618,0,0,1,13.15,39.008Z" transform="translate(-0.345 -26.55)"/><path class="a" d="M245.291,86.762a4.02,4.02,0,0,1,3.274,3.274.419.419,0,0,0,.415.35.557.557,0,0,0,.072-.006.422.422,0,0,0,.347-.487,4.861,4.861,0,0,0-3.961-3.961.424.424,0,0,0-.487.344A.417.417,0,0,0,245.291,86.762Z" transform="translate(-237.303 -83.241)"/><path class="a" d="M255.788,6.529A8,8,0,0,0,249.265.007a.421.421,0,1,0-.137.831,7.15,7.15,0,0,1,5.829,5.829.419.419,0,0,0,.415.35.558.558,0,0,0,.072-.006A.414.414,0,0,0,255.788,6.529Z" transform="translate(-241.015 0)"/></svg>