<svg xmlns="http://www.w3.org/2000/svg" xmlns:xlink="http://www.w3.org/1999/xlink" width="23.273" height="24.388" viewBox="0 0 23.273 24.388"><defs><style>.a{fill:none;}.b{clip-path:url(#a);}.c{fill:#ff7a59;}</style><clipPath id="a"><rect class="a" width="23.273" height="24.388"/></clipPath></defs><g class="b" transform="translate(0 0)"><g transform="translate(-0.002 -0.001)"><path class="c" d="M102.819,8.236v-2.9a2.237,2.237,0,0,0,1.29-2.015V3.251a2.236,2.236,0,0,0-2.236-2.235h-.067a2.236,2.236,0,0,0-2.236,2.235v.068a2.237,2.237,0,0,0,1.29,2.015v2.9a6.334,6.334,0,0,0-3.011,1.326l-7.962-6.2a2.479,2.479,0,0,0,.089-.627,2.519,2.519,0,1,0-2.523,2.515h0a2.492,2.492,0,0,0,1.24-.336l7.841,6.1a6.35,6.35,0,0,0,.1,7.154l-2.385,2.384a2.063,2.063,0,1,0,1.474,1.974,2.031,2.031,0,0,0-.1-.6l2.359-2.36a6.361,6.361,0,1,0,4.836-11.331m-.978,9.549a3.264,3.264,0,1,1,3.268-3.266,3.264,3.264,0,0,1-3.268,3.266" transform="translate(-84.937 -0.209)"/></g></g></svg>