<svg xmlns="http://www.w3.org/2000/svg" width="15.213" height="15.213" viewBox="0 0 15.213 15.213"><defs><style>.a{fill:#c4c4c4;}</style></defs><path class="a" d="M7.606,0a7.606,7.606,0,1,0,7.606,7.606A7.615,7.615,0,0,0,7.606,0ZM7.161,3.734a10.4,10.4,0,0,1-1.99-.279c.1-.243.213-.476.333-.7A3.849,3.849,0,0,1,7.161.987Zm0,.892V7.161H4.377A11.2,11.2,0,0,1,4.864,4.3,11.286,11.286,0,0,0,7.161,4.626Zm0,3.426v2.535a11.285,11.285,0,0,0-2.3.33,11.2,11.2,0,0,1-.487-2.865Zm0,3.427v2.747A3.849,3.849,0,0,1,5.5,12.455c-.12-.221-.231-.454-.333-.7A10.4,10.4,0,0,1,7.161,11.479Zm.891,0a10.4,10.4,0,0,1,1.99.279c-.1.243-.213.476-.333.7a3.849,3.849,0,0,1-1.657,1.771Zm0-.892V8.052h2.784a11.2,11.2,0,0,1-.487,2.865A11.285,11.285,0,0,0,8.052,10.587Zm0-3.426V4.626a11.286,11.286,0,0,0,2.3-.33,11.2,11.2,0,0,1,.487,2.865Zm0-3.427V.987A3.849,3.849,0,0,1,9.709,2.758c.12.221.231.454.333.7A10.4,10.4,0,0,1,8.052,3.734Zm2.44-1.4A6.767,6.767,0,0,0,9.771,1.25a6.723,6.723,0,0,1,2.377,1.416,8.422,8.422,0,0,1-1.243.538A9.03,9.03,0,0,0,10.493,2.333Zm-5.772,0a9.031,9.031,0,0,0-.413.87,8.434,8.434,0,0,1-1.243-.538A6.723,6.723,0,0,1,5.442,1.25,6.769,6.769,0,0,0,4.72,2.333ZM4.006,4.041a11.936,11.936,0,0,0-.522,3.12H.907A6.684,6.684,0,0,1,2.431,3.333,9.168,9.168,0,0,0,4.006,4.041ZM3.485,8.052a11.935,11.935,0,0,0,.522,3.12,9.168,9.168,0,0,0-1.576.708A6.684,6.684,0,0,1,.907,8.052Zm.823,3.957a9.031,9.031,0,0,0,.413.87,6.775,6.775,0,0,0,.721,1.083,6.722,6.722,0,0,1-2.377-1.416A8.422,8.422,0,0,1,4.308,12.01Zm6.185.87a9.03,9.03,0,0,0,.413-.87,8.434,8.434,0,0,1,1.243.538,6.723,6.723,0,0,1-2.377,1.416A6.769,6.769,0,0,0,10.493,12.88Zm.714-1.708a11.936,11.936,0,0,0,.522-3.12h2.578a6.684,6.684,0,0,1-1.524,3.828A9.168,9.168,0,0,0,11.207,11.172Zm.522-4.011a11.935,11.935,0,0,0-.522-3.12,9.168,9.168,0,0,0,1.576-.708,6.684,6.684,0,0,1,1.524,3.828Zm0,0"/></svg>