<svg xmlns="http://www.w3.org/2000/svg" width="22.082" height="22.066" viewBox="0 0 22.082 22.066"><defs><style>.a{fill:#fff;}</style></defs><g transform="translate(0 -0.16)"><path class="a" d="M21.892.344a.637.637,0,0,0-.7-.132L.383,9.331A.644.644,0,0,0,0,9.882a.632.632,0,0,0,.32.584L7.576,14.58l4.308,7.33a.641.641,0,0,0,.546.315h.038a.637.637,0,0,0,.546-.381l9.015-20.8A.628.628,0,0,0,21.892.344Zm-3.31,2.4L7.934,13.319,2.054,9.986ZM12.345,20.187,8.838,14.213,19.548,3.574Z" transform="translate(0 0)"/></g></svg>