<svg xmlns="http://www.w3.org/2000/svg" width="23.525" height="23.686" viewBox="0 0 23.525 23.686"><defs><style>.a{fill:#7ac043;}.b{fill:#ee4035;}.c{fill:#4f91cd;}.d{fill:#f9ae41;}</style></defs><g transform="translate(0 0)"><path class="a" d="M-3062.92,2534.373a.463.463,0,0,0-.16-.036,3.113,3.113,0,0,1-2.438-2.453,3.1,3.1,0,0,1,2.473-3.646,3.1,3.1,0,0,1,3.637,2.509c0,.029.011.058.016.087.011.063.011.065.075.041a4.254,4.254,0,0,1,.872-.233,3.8,3.8,0,0,1,1-.02,5.1,5.1,0,0,1,2.351.957,8.3,8.3,0,0,1,.784.626c.037.032.072.066.107.1a.158.158,0,0,1-.059.081l-1.673,1.736-.4.418c-.062.065-.063.065-.131.008a2.667,2.667,0,0,0-.929-.522,1.68,1.68,0,0,0-1.766.43,4.339,4.339,0,0,0-.312.328,1.466,1.466,0,0,0-.353.868,2.143,2.143,0,0,0,.295,1.186,4.635,4.635,0,0,0,.792,1.037q1.109,1.132,2.22,2.261l2.256,2.3c.013.014.027.029.041.042.03.025.025.046,0,.073-.1.1-.2.208-.3.312l-1.742,1.806a.262.262,0,0,1-.081.072.293.293,0,0,1-.08-.071l-3.054-3.041c-.781-.777-1.56-1.558-2.347-2.33a4.8,4.8,0,0,1-.776-1,4.854,4.854,0,0,1-.591-1.523,3.841,3.841,0,0,1,.24-2.291A.307.307,0,0,0-3062.92,2534.373Z" transform="translate(3065.596 -2528.182)"/><path class="b" d="M-2112.926,3091.843l2.146-2.229a.282.282,0,0,1,.09.076q2.655,2.641,5.311,5.279a5.338,5.338,0,0,1,.935,1.209,4.714,4.714,0,0,1,.553,1.578,3.833,3.833,0,0,1-.271,2.117c-.013.029-.025.06-.037.091,0,0,0,.006,0,.016a3.092,3.092,0,0,1,2.188,1.446,3,3,0,0,1,.44,2.025,3.1,3.1,0,0,1-2.95,2.712,3.108,3.108,0,0,1-3.219-2.7c-.034-.008-.062.013-.091.024a3.944,3.944,0,0,1-1.658.259,4.352,4.352,0,0,1-1.551-.4,7.067,7.067,0,0,1-1.711-1.143l-.029-.027c-.044-.047-.129-.077-.13-.137s.074-.093.117-.137l1.959-2.033.048-.05c.065-.067.065-.067.136-.008a2.662,2.662,0,0,0,1.042.552,1.662,1.662,0,0,0,1.6-.417,3.827,3.827,0,0,0,.361-.375,1.514,1.514,0,0,0,.341-1.231,2.626,2.626,0,0,0-.457-1.108,5.18,5.18,0,0,0-.625-.759l-4.476-4.555Z" transform="translate(2125.049 -3082.481)"/><path class="c" d="M-3061,3498.655c-.027.119-.05.234-.08.348a3.083,3.083,0,0,1-2.437,2.25,3.027,3.027,0,0,1-2.855-.956,2.959,2.959,0,0,1-.779-1.614,3.1,3.1,0,0,1,2.5-3.535c.042-.008.084-.015.126-.02s.053-.024.037-.065a4.215,4.215,0,0,1-.18-.581,3.918,3.918,0,0,1,.038-1.917,5.655,5.655,0,0,1,.961-1.9,8.334,8.334,0,0,1,.558-.674c.057-.062.058-.061.12,0l1.43,1.381c.246.237.493.472.738.709.061.058.069.049.007.122a2.71,2.71,0,0,0-.512.89,1.661,1.661,0,0,0,.346,1.731,2.97,2.97,0,0,0,.5.469,1.521,1.521,0,0,0,1.121.262,2.8,2.8,0,0,0,1.271-.566,5.715,5.715,0,0,0,.648-.558l1.958-1.926q1.158-1.139,2.317-2.275c.084-.083.169-.165.254-.247.054-.052.055-.052.108,0l.623.6q.738.71,1.475,1.42c.1.1.1.071,0,.168l-2.347,2.357q-1.51,1.517-3.018,3.036a4.837,4.837,0,0,1-1.006.782,4.855,4.855,0,0,1-1.543.593,3.849,3.849,0,0,1-2.271-.246A.262.262,0,0,0-3061,3498.655Z" transform="translate(3067.191 -3477.722)"/><path class="d" d="M-2504.64,2542.34c.022.062.043.123.065.184a3.9,3.9,0,0,1,.222,1.605,4.239,4.239,0,0,1-.339,1.368,6.533,6.533,0,0,1-1,1.614c-.1.119-.2.234-.3.349-.057.064-.059.064-.12,0l-.872-.839-1.268-1.223-.035-.034c-.057-.056-.056-.051-.008-.108a2.89,2.89,0,0,0,.335-.485,2.133,2.133,0,0,0,.288-.951,1.642,1.642,0,0,0-.4-1.133,3.308,3.308,0,0,0-.522-.505,1.433,1.433,0,0,0-.73-.291,2.066,2.066,0,0,0-1.218.271,4.525,4.525,0,0,0-1.058.8c-.479.467-.955.938-1.432,1.407l-2.281,2.241-.857.841c-.012.012-.024.022-.035.035-.027.031-.053.03-.083,0-.063-.062-.129-.122-.192-.183l-1.473-1.421-.461-.443c-.021-.021-.044-.039-.063-.055a.187.187,0,0,1,.065-.085l4.283-4.3c.373-.375.748-.746,1.115-1.126a4.576,4.576,0,0,1,.994-.766,4.893,4.893,0,0,1,1.418-.565,3.957,3.957,0,0,1,1.173-.082,3.778,3.778,0,0,1,1.25.321.128.128,0,0,0,.069.02,3.1,3.1,0,0,1,1.375-2.143,3,3,0,0,1,1.972-.5,3.1,3.1,0,0,1,2.835,2.926A3.116,3.116,0,0,1-2504.64,2542.34Z" transform="translate(2525.452 -2536.042)"/></g></svg>