<svg xmlns="http://www.w3.org/2000/svg" width="45.713" height="45.71" viewBox="0 0 45.713 45.71"><defs><style>.a{fill:#d8001a;}</style></defs><path d="M447.543,221.867H444.5a.762.762,0,0,0,0,1.524h3.047a.762.762,0,0,1,.762.762v7.619a.762.762,0,0,1-.762.762H444.5a.762.762,0,0,0,0,1.524h3.047a2.286,2.286,0,0,0,2.286-2.285v-7.619A2.286,2.286,0,0,0,447.543,221.867Z" transform="translate(-404.116 -202.058)"/><path d="M2.286,218.515h9.142a.762.762,0,1,0,0-1.524H2.286a.762.762,0,0,1-.762-.762V208.61a.762.762,0,0,1,.762-.762h9.142a.762.762,0,1,0,0-1.524H5.333v-.762a.762.762,0,0,0-1.524,0v.762H2.286A2.286,2.286,0,0,0,0,208.61v7.619A2.286,2.286,0,0,0,2.286,218.515Z" transform="translate(0 -186.516)"/><path d="M189.1,179.2a9.9,9.9,0,1,0,9.9,9.9A9.9,9.9,0,0,0,189.1,179.2Zm0,18.285a8.381,8.381,0,1,1,8.381-8.381A8.381,8.381,0,0,1,189.1,197.484Z" transform="translate(-163.2 -163.2)"/><path class="a" d="M42.668,256.762v4.571a.762.762,0,0,0,1.524,0v-4.571a.762.762,0,1,0-1.524,0Z" transform="translate(-38.858 -233.144)"/><path class="a" d="M169.742,166.1a.762.762,0,0,0-1.071.006l-.737.737-1.233-1.233c0-.005-.012-.006-.017-.012a13,13,0,1,0-1.072,1.072c.006.005.006.012.012.017l1.233,1.233-.879.879a.761.761,0,0,0,.007,1.084l6.292,6.151a2.667,2.667,0,0,0,3.765-3.777Zm-12.724,2.334a11.428,11.428,0,1,1,11.428-11.428A11.428,11.428,0,0,1,157.019,168.438Zm12.2-.718,4.439,4.343-1.616,1.616-4.439-4.339Zm5.755,7.238a1.143,1.143,0,0,1-1.622-.007l-.22-.214,1.616-1.616.229.221a1.143,1.143,0,0,1,0,1.615Z" transform="translate(-131.115 -131.106)"/><path class="a" d="M233.669,256.059a.762.762,0,0,0-1.022.341l-2.266,4.531-1.672-4.458a.762.762,0,0,0-1.428,0l-1.672,4.458-2.262-4.531a.762.762,0,1,0-1.364.681l3.047,6.095a.752.752,0,0,0,.722.421.762.762,0,0,0,.674-.493L228,258.911l1.572,4.19a.762.762,0,0,0,.674.494h.04a.763.763,0,0,0,.686-.421l3.048-6.1A.762.762,0,0,0,233.669,256.059Z" transform="translate(-202.092 -233.123)"/><path d="M1.524,4.571H12.952a1.524,1.524,0,0,0,1.524-1.524V1.524A1.524,1.524,0,0,0,12.952,0H1.524A1.524,1.524,0,0,0,0,1.524V3.047A1.524,1.524,0,0,0,1.524,4.571Zm0-3.047H12.952V3.047H1.524Z"/><path d="M238.934,69.79v1.524a1.524,1.524,0,0,0,1.524,1.524h11.428a1.524,1.524,0,0,0,1.524-1.524V69.79a1.524,1.524,0,0,0-1.524-1.524H240.458A1.524,1.524,0,0,0,238.934,69.79Zm12.952,1.524H240.458V69.79h11.428Z" transform="translate(-217.601 -62.171)"/><path class="a" d="M180.723,4.571h6.1a1.524,1.524,0,0,0,1.524-1.524V1.524A1.524,1.524,0,0,0,186.818,0h-6.1A1.524,1.524,0,0,0,179.2,1.524V3.047A1.524,1.524,0,0,0,180.723,4.571Zm0-3.047h6.1V3.047h-6.1Z" transform="translate(-163.2)"/><path d="M120.989,68.266a1.524,1.524,0,0,0-1.524,1.524v1.524a1.524,1.524,0,0,0,1.524,1.524h6.095a1.524,1.524,0,0,0,1.524-1.524V69.79a1.524,1.524,0,0,0-1.524-1.524Zm0,3.047V69.79h6.095v1.524Z" transform="translate(-108.799 -62.171)"/><path d="M1.524,72.837H3.81V73.6a.762.762,0,1,0,1.524,0v-.762H7.619a1.524,1.524,0,0,0,1.524-1.524V69.79a1.524,1.524,0,0,0-1.524-1.524H1.524A1.524,1.524,0,0,0,0,69.79v1.524A1.524,1.524,0,0,0,1.524,72.837Zm0-3.048H7.619v1.524H1.524Z" transform="translate(0 -62.171)"/><path d="M300.192,4.571h3.047a1.524,1.524,0,0,0,1.524-1.524V1.524A1.524,1.524,0,0,0,303.239,0h-3.047a1.524,1.524,0,0,0-1.524,1.524V3.047A1.524,1.524,0,0,0,300.192,4.571Zm0-3.047h3.047V3.047h-3.047Z" transform="translate(-272.002)"/><path class="a" d="M424.99,68.266h-5.333a1.524,1.524,0,0,0-1.524,1.524v1.524a1.524,1.524,0,0,0,1.524,1.524h5.333a1.524,1.524,0,0,0,1.524-1.524V69.79A1.524,1.524,0,0,0,424.99,68.266Zm-5.333,3.047V69.79h5.333v1.524Z" transform="translate(-380.801 -62.171)"/><path d="M393.9,0h-8.381A1.524,1.524,0,0,0,384,1.524V3.047a1.524,1.524,0,0,0,1.524,1.524H393.9a1.524,1.524,0,0,0,1.524-1.524V1.524A1.524,1.524,0,0,0,393.9,0Zm-8.381,3.047V1.524H393.9V3.047Z" transform="translate(-349.715)"/><path d="M43.43,153.6a.762.762,0,0,0-.762.762v1.524a.762.762,0,1,0,1.524,0v-1.524A.762.762,0,0,0,43.43,153.6Z" transform="translate(-38.858 -139.888)"/></svg>