<svg xmlns="http://www.w3.org/2000/svg" width="32.949" height="12.812" viewBox="0 0 32.949 12.812"><defs><style>.a{fill:#faaf41;}.b{fill:#1d1d1b;}</style></defs><path class="a" d="M71.127.239c-.652.342-.907.92-.907,2.514a2.555,2.555,0,0,1,.823-.5,3.46,3.46,0,0,0,.848-.452c.552-.409.629-.93.629-1.807A3.547,3.547,0,0,0,71.127.239Z" transform="translate(-52.276 0.002)"/><path class="b" d="M14.979.621a2.5,2.5,0,0,0-.69,1.219L12.526,8.668,11.062,3.092a4.8,4.8,0,0,0-.807-1.84,2.452,2.452,0,0,0-3.373,0,4.8,4.8,0,0,0-.807,1.84L4.607,8.668,2.844,1.84A2.481,2.481,0,0,0,2.157.621,3.031,3.031,0,0,0,0,.025L3.378,12.787a4.113,4.113,0,0,0,1.671-.2c.731-.373,1.078-.659,1.533-2.4.373-1.549,1.485-6.1,1.589-6.419.051-.161.115-.544.4-.544s.345.383.4.544c.1.325,1.206,4.87,1.6,6.419.442,1.738.792,2.024,1.533,2.4a4.113,4.113,0,0,0,1.671.2L17.136.025A3.031,3.031,0,0,0,14.979.621Z" transform="translate(0 -0.007)"/><path class="b" d="M72.52,8.22a2.1,2.1,0,0,1-.693.6c-.309.171-.606.289-.925.442a.976.976,0,0,0-.682.968V18.9a2.915,2.915,0,0,0,1.411-.176c.715-.365.882-.718.887-2.3V8.693Z" transform="translate(-52.276 -6.119)"/><path class="b" d="M90.7,6.434,94.978.064a3.766,3.766,0,0,0-2.7.511,10.059,10.059,0,0,0-1.214,1.459L89.486,4.305a.353.353,0,0,1-.672,0L87.237,2.034A10.247,10.247,0,0,0,86.024.575a3.8,3.8,0,0,0-2.7-.511l4.285,6.37-4.273,6.35a4.159,4.159,0,0,0,2.778-.578,8.5,8.5,0,0,0,1.127-1.37l1.577-2.272a.353.353,0,0,1,.672,0l1.577,2.272a9.482,9.482,0,0,0,1.16,1.37,4.075,4.075,0,0,0,2.744.578Z" transform="translate(-62.029 -0.004)"/></svg>