<svg xmlns="http://www.w3.org/2000/svg" width="24.153" height="24.153" viewBox="0 0 24.153 24.153"><defs><style>.a{fill:#00769d;}</style></defs><path class="a" d="M71.53,42.03H70.2l3.636,10.279,2.036-5.817L74.29,42.03H72.883v-.979h6.232v.979H77.655l3.636,10.279L82.6,48.574c1.715-4.786-1.405-6.276-1.405-7.345A1.934,1.934,0,0,1,83.127,39.3c.058,0,.114,0,.169.008a10.1,10.1,0,0,0-15.345,1.747H71.53v.979Z" transform="translate(-64.285 -34.576)"/><path class="a" d="M36.548,154.339a10.1,10.1,0,0,0,5.367,8.927l-4.56-12.89A10.072,10.072,0,0,0,36.548,154.339Z" transform="translate(-34.576 -142.263)"/><path class="a" d="M315.913,131.547a7.143,7.143,0,0,1-.121,2.768h.04l-.153.437h0a9.411,9.411,0,0,1-.334.955l-3.477,9.741a10.109,10.109,0,0,0,4.045-13.9Z" transform="translate(-295.042 -124.45)"/><path class="a" d="M166.075,256.289a10.152,10.152,0,0,0,6.1.043l-2.956-8.355Z" transform="translate(-157.115 -234.598)"/><path class="a" d="M20.616,3.537A12.077,12.077,0,1,0,3.537,20.616,12.077,12.077,0,1,0,20.616,3.537ZM12.077,23.3A11.225,11.225,0,1,1,23.3,12.077,11.237,11.237,0,0,1,12.077,23.3Z"/></svg>